<svg xmlns="http://www.w3.org/2000/svg" xmlns:xlink="http://www.w3.org/1999/xlink" width="500" zoomAndPan="magnify" viewBox="0 0 375 374.999991" height="500" preserveAspectRatio="xMidYMid meet" version="1.0"><defs><g/></defs><rect x="-37.5" width="450" fill="#ffffff" y="-37.499999" height="449.999989" fill-opacity="1"/><rect x="-37.5" width="450" fill="#ffffff" y="-37.499999" height="449.999989" fill-opacity="1"/><rect x="-37.5" width="450" fill="#f6f6f6" y="-37.499999" height="449.999989" fill-opacity="1"/><path fill="#361d06" d="M 102.988281 52.125 C 106.542969 42.210938 119.289062 37.546875 128.597656 44.578125 C 131.089844 46.46875 132.898438 48.875 134.023438 51.789062 C 141.082031 49.867188 148.960938 53.585938 151.578125 60.761719 C 152.617188 60.757812 153.636719 60.902344 154.636719 61.1875 C 155.632812 61.476562 156.570312 61.894531 157.449219 62.449219 C 158.328125 63.003906 159.109375 63.671875 159.796875 64.449219 C 160.484375 65.226562 161.050781 66.082031 161.492188 67.023438 C 162.09375 66.558594 162.730469 66.148438 163.402344 65.789062 C 164.074219 65.433594 164.773438 65.136719 165.496094 64.902344 C 166.21875 64.664062 166.957031 64.492188 167.710938 64.378906 C 168.464844 64.269531 169.21875 64.222656 169.980469 64.242188 C 170.742188 64.261719 171.496094 64.34375 172.242188 64.492188 C 172.988281 64.640625 173.71875 64.851562 174.429688 65.121094 C 175.136719 65.394531 175.820312 65.726562 176.472656 66.113281 C 177.128906 66.503906 177.746094 66.945312 178.320312 67.4375 C 179.730469 66.566406 181.230469 65.902344 182.824219 65.445312 C 184.414062 64.988281 186.039062 64.753906 187.695312 64.742188 C 189.355469 64.734375 190.980469 64.949219 192.578125 65.386719 C 194.175781 65.828125 195.683594 66.476562 197.101562 67.332031 C 198.125 66.480469 199.25 65.796875 200.480469 65.28125 C 201.707031 64.765625 202.984375 64.441406 204.3125 64.308594 C 205.636719 64.175781 206.953125 64.238281 208.261719 64.496094 C 209.566406 64.757812 210.808594 65.199219 211.980469 65.832031 C 214.621094 62.769531 218.726562 62.382812 221.882812 63.941406 L 222.984375 60.6875 C 228.96875 47.070312 246.621094 57.308594 237.453125 69.519531 L 241.261719 67.945312 C 241.398438 67.890625 241.539062 67.863281 241.6875 67.863281 C 241.835938 67.863281 241.976562 67.890625 242.113281 67.949219 C 242.25 68.007812 242.371094 68.085938 242.472656 68.191406 C 242.578125 68.296875 242.65625 68.417969 242.714844 68.554688 L 244.523438 72.914062 C 244.582031 73.050781 244.609375 73.195312 244.609375 73.339844 C 244.609375 73.488281 244.578125 73.632812 244.523438 73.765625 C 244.464844 73.902344 244.382812 74.023438 244.277344 74.125 C 244.171875 74.230469 244.050781 74.308594 243.914062 74.367188 L 242.917969 74.78125 C 250.058594 78.945312 257.183594 87.363281 261.316406 97.585938 L 287.480469 162.691406 C 291.128906 171.777344 290.839844 180.136719 285.324219 186.257812 C 287.410156 194.628906 268.070312 202.589844 260.65625 205.640625 L 259.984375 205.917969 L 259.929688 205.941406 C 252.535156 209.007812 232.570312 217.484375 228.015625 209.945312 C 219.777344 209.503906 213.648438 203.796875 209.796875 194.804688 L 187.652344 143.101562 L 165.511719 194.804688 C 161.65625 203.796875 155.53125 209.503906 147.292969 209.945312 C 142.734375 217.484375 122.773438 209.007812 115.378906 205.941406 L 115.324219 205.917969 L 114.652344 205.640625 C 107.238281 202.589844 87.910156 194.628906 89.996094 186.257812 C 84.46875 180.136719 84.179688 171.777344 87.828125 162.691406 L 113.988281 97.585938 L 114.011719 97.535156 C 113.429688 97.597656 112.847656 97.621094 112.265625 97.605469 C 110.554688 97.5625 108.921875 97.183594 107.363281 96.476562 C 106.421875 96.761719 105.46875 96.960938 104.492188 97.074219 C 103.519531 97.1875 102.542969 97.214844 101.566406 97.152344 C 100.585938 97.09375 99.621094 96.949219 98.667969 96.71875 C 97.714844 96.488281 96.789062 96.175781 95.894531 95.78125 C 94.996094 95.386719 94.140625 94.914062 93.328125 94.367188 C 92.515625 93.820312 91.753906 93.207031 91.050781 92.527344 C 90.347656 91.847656 89.707031 91.109375 89.136719 90.316406 C 88.5625 89.519531 88.0625 88.683594 87.640625 87.800781 C 87.214844 86.917969 86.875 86.007812 86.613281 85.0625 C 86.351562 84.121094 86.175781 83.160156 86.085938 82.1875 C 85.992188 81.210938 85.988281 80.238281 86.074219 79.261719 C 86.15625 78.289062 86.324219 77.328125 86.578125 76.382812 C 86.832031 75.4375 87.164062 74.523438 87.582031 73.636719 C 88 72.75 88.488281 71.90625 89.054688 71.109375 C 89.621094 70.3125 90.253906 69.566406 90.953125 68.882812 C 91.652344 68.195312 92.40625 67.574219 93.214844 67.023438 C 90.515625 60.523438 94.933594 52.273438 102.988281 52.136719 " fill-opacity="1" fill-rule="nonzero"/><path fill="#f9b32f" d="M 118.511719 198.347656 C 125.148438 200.972656 132.042969 203.960938 138.789062 206.347656 C 150.644531 210.542969 158.726562 204.972656 163.460938 193.933594 L 174.675781 167.75 C 147.875 163.054688 123.136719 152.40625 100.632812 136.800781 L 89.898438 163.519531 C 85.40625 174.660156 87.183594 184.308594 98.542969 189.710938 C 105.109375 192.832031 111.570312 195.359375 118.511719 198.347656 " fill-opacity="1" fill-rule="nonzero"/><path fill="#f1892d" d="M 106.839844 140.941406 C 104.753906 139.601562 102.683594 138.21875 100.632812 136.800781 L 89.898438 163.519531 C 85.40625 174.660156 87.183594 184.308594 98.542969 189.710938 C 104.84375 192.707031 111.0625 195.15625 117.679688 197.992188 C 104.136719 191.839844 90.460938 181.246094 96.839844 165.535156 Z M 124.273438 200.671875 L 126.238281 201.472656 C 125.617188 201.199219 124.988281 200.925781 124.273438 200.671875 Z M 124.273438 200.671875 " fill-opacity="1" fill-rule="nonzero"/><path fill="#c5c4bf" d="M 166.121094 145.050781 C 163.613281 145.183594 161.171875 144.863281 158.785156 144.089844 C 156.398438 143.316406 154.234375 142.140625 152.285156 140.566406 C 136.652344 134.871094 121.945312 127.363281 108.167969 118.050781 L 101.488281 134.679688 C 124.027344 150.355469 148.714844 161.019531 175.574219 165.648438 L 182.671875 149.050781 C 177.144531 147.949219 171.460938 146.570312 166.105469 145.050781 " fill-opacity="1" fill-rule="nonzero"/><path fill="#999999" d="M 114.480469 122.136719 C 112.355469 120.816406 110.25 119.453125 108.167969 118.050781 L 101.488281 134.679688 C 103.539062 136.105469 105.605469 137.492188 107.695312 138.847656 Z M 166.121094 145.042969 C 163.613281 145.175781 161.171875 144.855469 158.785156 144.082031 C 156.398438 143.308594 154.234375 142.132812 152.285156 140.558594 C 148.390625 139.148438 144.558594 137.621094 140.789062 135.976562 C 146.152344 149.242188 160.578125 155.277344 175.988281 147.597656 C 172.652344 146.820312 169.328125 145.960938 166.121094 145.050781 Z M 166.121094 145.042969 " fill-opacity="1" fill-rule="nonzero"/><path fill="#f5e3b9" d="M 149.191406 102.035156 C 150.171875 103.121094 148.515625 104.613281 147.523438 103.519531 C 146.207031 102.117188 145.234375 100.503906 144.601562 98.691406 C 144.261719 98.984375 143.945312 99.296875 143.644531 99.628906 C 143.34375 99.960938 143.066406 100.308594 142.808594 100.675781 C 142.554688 101.042969 142.320312 101.421875 142.109375 101.820312 C 141.898438 102.214844 141.714844 102.621094 141.554688 103.039062 C 141.394531 103.457031 141.261719 103.882812 141.15625 104.316406 C 141.046875 104.75 140.964844 105.1875 140.914062 105.632812 C 140.859375 106.074219 140.832031 106.523438 140.835938 106.96875 C 140.835938 107.414062 140.863281 107.859375 140.921875 108.304688 C 140.976562 108.75 141.058594 109.1875 141.167969 109.621094 C 141.277344 110.054688 141.414062 110.480469 141.578125 110.894531 C 141.738281 111.3125 141.925781 111.71875 142.136719 112.113281 C 142.351562 112.503906 142.585938 112.886719 142.84375 113.25 C 143.101562 113.613281 143.382812 113.960938 143.683594 114.292969 C 143.988281 114.625 144.308594 114.933594 144.648438 115.226562 C 144.988281 115.519531 145.34375 115.789062 145.714844 116.035156 C 146.089844 116.285156 146.476562 116.507812 146.875 116.707031 C 148.382812 117.460938 149.980469 117.84375 151.667969 117.859375 C 153.132812 117.859375 153.113281 120.089844 151.667969 120.078125 C 150.332031 120.066406 149.03125 119.855469 147.761719 119.449219 C 147.550781 120.140625 147.378906 120.84375 147.253906 121.558594 C 147.128906 122.273438 147.042969 122.992188 147.003906 123.714844 C 146.964844 124.4375 146.964844 125.160156 147.011719 125.882812 C 147.058594 126.605469 147.148438 127.324219 147.28125 128.035156 C 147.414062 128.75 147.589844 129.449219 147.808594 130.140625 C 148.023438 130.832031 148.28125 131.507812 148.582031 132.171875 C 148.878906 132.832031 149.214844 133.472656 149.589844 134.089844 C 149.964844 134.710938 150.378906 135.308594 150.824219 135.878906 C 151.269531 136.449219 151.75 136.992188 152.261719 137.503906 C 152.773438 138.019531 153.316406 138.5 153.886719 138.949219 C 154.453125 139.398438 155.050781 139.8125 155.667969 140.191406 C 156.289062 140.566406 156.929688 140.90625 157.589844 141.207031 C 158.25 141.511719 158.925781 141.769531 159.617188 141.992188 C 160.308594 142.210938 161.007812 142.390625 161.722656 142.527344 C 162.4375 142.664062 163.15625 142.757812 163.878906 142.804688 C 164.601562 142.855469 165.328125 142.863281 166.050781 142.828125 C 166.144531 142.8125 166.234375 142.8125 166.328125 142.828125 C 167.535156 142.746094 168.71875 142.546875 169.886719 142.230469 C 171.054688 141.914062 172.175781 141.484375 173.257812 140.941406 C 174.339844 140.402344 175.355469 139.757812 176.308594 139.015625 C 177.257812 138.273438 178.128906 137.441406 178.914062 136.527344 C 178.0625 136.558594 177.210938 136.523438 176.359375 136.421875 C 174.898438 136.246094 175.171875 134.03125 176.632812 134.210938 C 178.046875 134.386719 179.453125 134.34375 180.855469 134.074219 C 181.019531 133.988281 181.195312 133.949219 181.382812 133.960938 C 190.175781 131.878906 194.972656 120.972656 188.832031 112.957031 C 187.574219 111.316406 186.023438 110.039062 184.167969 109.128906 C 182.855469 108.476562 183.84375 106.484375 185.160156 107.132812 C 186.539062 107.8125 187.792969 108.679688 188.914062 109.730469 C 189.386719 109.363281 189.828125 108.957031 190.234375 108.511719 C 190.640625 108.070312 191.007812 107.597656 191.335938 107.09375 C 191.667969 106.59375 191.953125 106.066406 192.191406 105.515625 C 192.433594 104.964844 192.628906 104.398438 192.777344 103.816406 C 192.925781 103.234375 193.023438 102.644531 193.074219 102.046875 C 193.125 101.449219 193.125 100.851562 193.078125 100.253906 C 193.027344 99.65625 192.933594 99.0625 192.785156 98.480469 C 192.640625 97.898438 192.445312 97.332031 192.207031 96.78125 C 191.621094 95.445312 193.667969 94.558594 194.253906 95.890625 C 194.855469 97.273438 195.210938 98.714844 195.320312 100.21875 C 195.703125 100.3125 196.085938 100.386719 196.476562 100.4375 C 196.867188 100.492188 197.257812 100.523438 197.652344 100.535156 C 198.042969 100.546875 198.4375 100.535156 198.828125 100.503906 C 199.21875 100.476562 199.609375 100.425781 199.996094 100.351562 C 200.382812 100.28125 200.761719 100.1875 201.140625 100.078125 C 201.515625 99.964844 201.886719 99.832031 202.25 99.683594 C 202.613281 99.53125 202.964844 99.359375 203.308594 99.171875 C 203.65625 98.984375 203.988281 98.777344 204.308594 98.550781 C 204.632812 98.328125 204.941406 98.085938 205.238281 97.832031 C 205.535156 97.574219 205.820312 97.300781 206.085938 97.015625 C 206.355469 96.726562 206.605469 96.425781 206.84375 96.113281 C 207.078125 95.800781 207.296875 95.472656 207.5 95.136719 C 207.699219 94.800781 207.882812 94.453125 208.046875 94.097656 C 208.210938 93.742188 208.355469 93.375 208.480469 93.003906 C 208.605469 92.632812 208.710938 92.253906 208.796875 91.871094 C 208.882812 91.488281 208.949219 91.101562 208.992188 90.714844 C 209.019531 90.324219 209.203125 90.039062 209.550781 89.859375 C 209.777344 89.738281 210.015625 89.699219 210.269531 89.742188 C 210.722656 89.8125 211.175781 89.855469 211.636719 89.867188 C 212.09375 89.882812 212.550781 89.867188 213.007812 89.824219 C 213.464844 89.785156 213.914062 89.714844 214.363281 89.613281 C 214.808594 89.515625 215.25 89.390625 215.679688 89.238281 C 216.113281 89.085938 216.535156 88.90625 216.945312 88.703125 C 217.355469 88.5 217.75 88.269531 218.128906 88.015625 C 218.511719 87.761719 218.875 87.484375 219.222656 87.1875 C 219.570312 86.890625 219.898438 86.570312 220.207031 86.230469 C 220.511719 85.894531 220.796875 85.535156 221.0625 85.164062 C 221.324219 84.789062 221.566406 84.398438 221.78125 83.996094 C 221.996094 83.59375 222.183594 83.175781 222.347656 82.75 C 222.511719 82.324219 222.648438 81.886719 222.757812 81.445312 C 222.867188 81 222.949219 80.550781 223.003906 80.097656 C 223.058594 79.640625 223.085938 79.1875 223.082031 78.730469 C 223.082031 78.273438 223.050781 77.816406 222.992188 77.363281 C 222.933594 76.910156 222.84375 76.460938 222.730469 76.019531 C 222.707031 75.945312 222.691406 75.875 222.683594 75.796875 C 222.640625 75.476562 222.726562 75.199219 222.953125 74.964844 C 223.195312 74.648438 223.40625 74.308594 223.582031 73.945312 C 223.757812 73.585938 223.894531 73.210938 223.996094 72.824219 C 224.097656 72.4375 224.15625 72.042969 224.179688 71.640625 C 224.199219 71.242188 224.179688 70.84375 224.121094 70.445312 C 224.0625 70.050781 223.964844 69.664062 223.828125 69.285156 C 223.691406 68.910156 223.519531 68.550781 223.3125 68.207031 C 223.101562 67.863281 222.863281 67.546875 222.589844 67.253906 C 222.316406 66.957031 222.019531 66.695312 221.691406 66.460938 C 221.367188 66.226562 221.019531 66.023438 220.65625 65.859375 C 220.289062 65.695312 219.910156 65.566406 219.519531 65.476562 C 219.128906 65.386719 218.730469 65.339844 218.328125 65.328125 C 217.929688 65.316406 217.53125 65.347656 217.132812 65.417969 C 216.738281 65.488281 216.355469 65.59375 215.980469 65.742188 C 215.605469 65.886719 215.25 66.070312 214.914062 66.289062 C 214.578125 66.503906 214.265625 66.753906 213.976562 67.035156 C 213.691406 67.3125 213.433594 67.621094 213.207031 67.949219 C 213.054688 68.195312 212.835938 68.351562 212.554688 68.421875 C 212.238281 68.507812 211.945312 68.460938 211.675781 68.273438 C 210.726562 67.65625 209.703125 67.199219 208.613281 66.898438 C 207.523438 66.59375 206.410156 66.464844 205.28125 66.5 C 204.148438 66.539062 203.046875 66.742188 201.980469 67.117188 C 200.910156 67.488281 199.921875 68.011719 199.015625 68.6875 C 199.578125 69.140625 200.109375 69.625 200.613281 70.140625 C 201.632812 71.1875 200.039062 72.742188 199.015625 71.691406 C 198.613281 71.285156 198.191406 70.898438 197.75 70.539062 C 197.308594 70.175781 196.847656 69.839844 196.367188 69.527344 C 195.890625 69.214844 195.394531 68.933594 194.882812 68.675781 C 194.375 68.417969 193.851562 68.1875 193.316406 67.988281 C 192.78125 67.785156 192.238281 67.617188 191.683594 67.476562 C 191.128906 67.332031 190.570312 67.222656 190.003906 67.144531 C 189.4375 67.0625 188.867188 67.015625 188.296875 66.996094 C 187.726562 66.976562 187.152344 66.992188 186.585938 67.035156 C 186.015625 67.078125 185.449219 67.15625 184.886719 67.261719 C 184.324219 67.367188 183.769531 67.503906 183.222656 67.667969 C 182.675781 67.835938 182.140625 68.03125 181.613281 68.257812 C 181.089844 68.480469 180.578125 68.734375 180.082031 69.015625 C 179.582031 69.296875 179.101562 69.601562 178.636719 69.933594 C 178.171875 70.269531 177.730469 70.625 177.304688 71.007812 C 176.878906 71.390625 176.476562 71.792969 176.09375 72.21875 C 175.714844 72.644531 175.355469 73.089844 175.023438 73.554688 C 174.191406 74.738281 172.363281 73.449219 173.210938 72.261719 C 174.136719 70.964844 175.214844 69.8125 176.449219 68.800781 C 176.089844 68.523438 175.714844 68.269531 175.324219 68.039062 C 174.933594 67.808594 174.53125 67.601562 174.117188 67.417969 C 173.703125 67.238281 173.277344 67.082031 172.84375 66.949219 C 172.40625 66.820312 171.96875 66.71875 171.519531 66.640625 C 171.074219 66.566406 170.621094 66.515625 170.167969 66.496094 C 169.714844 66.476562 169.265625 66.480469 168.8125 66.515625 C 168.359375 66.550781 167.910156 66.613281 167.464844 66.699219 C 167.023438 66.789062 166.582031 66.90625 166.152344 67.046875 C 165.722656 67.191406 165.304688 67.359375 164.894531 67.554688 C 164.484375 67.746094 164.085938 67.964844 163.703125 68.207031 C 163.320312 68.449219 162.953125 68.714844 162.601562 69.003906 C 162.253906 69.289062 161.921875 69.597656 161.609375 69.925781 C 161.296875 70.253906 161.003906 70.601562 160.734375 70.964844 C 160.464844 71.328125 160.21875 71.707031 159.992188 72.097656 C 159.769531 72.492188 159.570312 72.898438 159.398438 73.316406 C 159.222656 73.734375 159.074219 74.164062 158.953125 74.597656 C 158.941406 74.667969 158.921875 74.734375 158.898438 74.796875 C 158.871094 74.917969 158.839844 75.039062 158.816406 75.160156 C 158.457031 76.757812 158.457031 78.351562 158.816406 79.945312 C 159.132812 81.375 156.957031 81.855469 156.640625 80.425781 C 156.316406 78.980469 156.238281 77.519531 156.40625 76.046875 C 150.878906 78.21875 147.070312 82.101562 145.921875 87.742188 C 144.953125 92.425781 145.921875 98.109375 148.722656 101.488281 C 148.851562 101.636719 149.007812 101.820312 149.203125 102.039062 " fill-opacity="1" fill-rule="nonzero"/><path fill="#c5c4bf" d="M 225.296875 79.664062 L 242.039062 72.742188 L 241.074219 70.429688 L 233.328125 73.632812 C 233.25 73.675781 233.171875 73.710938 233.085938 73.730469 L 225.214844 77.019531 C 225.339844 77.902344 225.375 78.792969 225.320312 79.683594 " fill-opacity="1" fill-rule="nonzero"/><path fill="#c5c4bf" d="M 229.625 72.761719 L 232.238281 71.683594 C 246.328125 60.210938 229.734375 49.929688 225.03125 61.632812 L 223.808594 65.261719 C 225.195312 66.507812 226.027344 68.054688 226.3125 69.894531 C 226.714844 69.902344 227.101562 69.972656 227.476562 70.117188 C 227.851562 70.257812 228.1875 70.460938 228.492188 70.722656 C 228.792969 70.984375 229.042969 71.292969 229.234375 71.644531 C 229.429688 71.992188 229.554688 72.367188 229.617188 72.761719 " fill-opacity="1" fill-rule="nonzero"/><path fill="#ffffff" d="M 225.828125 74.332031 L 227.25 73.746094 C 227.265625 73.699219 227.285156 73.65625 227.304688 73.617188 C 227.378906 73.453125 227.410156 73.285156 227.398438 73.109375 C 227.386719 72.933594 227.332031 72.769531 227.238281 72.617188 C 227.144531 72.46875 227.023438 72.351562 226.867188 72.261719 C 226.714844 72.175781 226.546875 72.128906 226.371094 72.125 C 226.269531 72.878906 226.089844 73.617188 225.828125 74.332031 " fill-opacity="1" fill-rule="nonzero"/><path fill="#f9b32f" d="M 186.445312 140.273438 L 184.316406 135.304688 C 183.578125 135.617188 182.820312 135.871094 182.042969 136.066406 C 180.761719 137.992188 179.191406 139.644531 177.339844 141.03125 C 175.484375 142.414062 173.453125 143.453125 171.246094 144.140625 C 175.324219 145.207031 179.335938 146.121094 183.578125 146.960938 Z M 186.445312 140.273438 " fill-opacity="1" fill-rule="nonzero"/><path fill="#f1892d" d="M 186.445312 140.273438 L 184.316406 135.304688 C 183.578125 135.617188 182.820312 135.871094 182.042969 136.066406 C 180.761719 137.992188 179.191406 139.644531 177.339844 141.03125 C 175.484375 142.414062 173.453125 143.453125 171.246094 144.140625 C 173.800781 144.808594 176.332031 145.417969 178.90625 145.984375 C 181.605469 144.328125 184.117188 142.425781 186.445312 140.273438 " fill-opacity="1" fill-rule="nonzero"/><path fill="#f9b32f" d="M 200.632812 167.75 L 211.859375 193.933594 C 216.589844 204.972656 224.675781 210.542969 236.53125 206.347656 C 243.277344 203.960938 250.171875 200.972656 256.804688 198.347656 C 263.75 195.359375 270.207031 192.832031 276.777344 189.710938 C 288.136719 184.296875 289.902344 174.660156 285.425781 163.519531 L 274.6875 136.800781 C 252.148438 152.410156 227.480469 163.042969 200.644531 167.75 " fill-opacity="1" fill-rule="nonzero"/><path fill="#f1892d" d="M 243.675781 203.640625 C 248.085938 201.894531 252.492188 200.042969 256.789062 198.339844 C 263.738281 195.351562 270.195312 192.820312 276.765625 189.703125 C 288.125 184.289062 289.890625 174.652344 285.410156 163.511719 L 274.671875 136.792969 C 272.402344 138.363281 270.113281 139.882812 267.800781 141.351562 L 275.65625 161.347656 C 285.136719 185.453125 267.136719 193.441406 243.675781 203.644531 " fill-opacity="1" fill-rule="nonzero"/><path fill="#c5c4bf" d="M 192.625 149.050781 L 199.71875 165.648438 C 226.542969 161.03125 251.328125 150.347656 273.804688 134.679688 L 267.128906 118.050781 C 255.875 125.65625 243.976562 132.070312 231.433594 137.289062 C 218.886719 142.507812 205.945312 146.429688 192.613281 149.050781 " fill-opacity="1" fill-rule="nonzero"/><path fill="#999999" d="M 266.972656 139.253906 C 269.277344 137.78125 271.558594 136.253906 273.820312 134.671875 L 267.144531 118.039062 C 264.902344 119.546875 262.640625 121.007812 260.363281 122.417969 Z M 266.972656 139.253906 " fill-opacity="1" fill-rule="nonzero"/><path fill="#f9b32f" d="M 186.304688 134.292969 L 191.730469 146.960938 C 205.082031 144.363281 218.035156 140.453125 230.589844 135.230469 C 243.144531 130.007812 255.042969 123.574219 266.289062 115.9375 L 259.253906 98.421875 C 255.023438 87.980469 247.492188 79.40625 240.261719 75.882812 L 224.871094 82.242188 C 224.671875 82.984375 224.410156 83.699219 224.082031 84.394531 C 223.757812 85.089844 223.375 85.753906 222.9375 86.382812 C 222.496094 87.011719 222.007812 87.601562 221.464844 88.144531 C 220.925781 88.691406 220.339844 89.1875 219.714844 89.628906 C 219.085938 90.074219 218.425781 90.460938 217.734375 90.792969 C 217.039062 91.125 216.320312 91.390625 215.582031 91.597656 C 214.839844 91.804688 214.089844 91.949219 213.324219 92.027344 C 212.558594 92.101562 211.792969 92.113281 211.023438 92.058594 C 210.851562 92.917969 210.597656 93.753906 210.257812 94.5625 C 209.921875 95.371094 209.507812 96.140625 209.019531 96.867188 C 208.527344 97.59375 207.972656 98.265625 207.347656 98.882812 C 206.726562 99.5 206.046875 100.050781 205.316406 100.535156 C 204.582031 101.019531 203.808594 101.425781 202.996094 101.757812 C 202.183594 102.089844 201.347656 102.339844 200.484375 102.503906 C 199.621094 102.671875 198.75 102.75 197.875 102.746094 C 196.996094 102.738281 196.125 102.648438 195.265625 102.472656 C 195.074219 104.214844 194.558594 105.855469 193.71875 107.390625 C 192.878906 108.929688 191.773438 110.25 190.410156 111.351562 C 195.515625 117.792969 194.953125 127.777344 187.679688 133.332031 C 187.226562 133.671875 186.765625 133.988281 186.289062 134.28125 " fill-opacity="1" fill-rule="nonzero"/><path fill="#f1892d" d="M 259.527344 120.335938 C 261.800781 118.921875 264.054688 117.460938 266.289062 115.953125 L 259.253906 98.441406 C 255.023438 87.996094 247.492188 79.421875 240.261719 75.898438 L 224.871094 82.242188 C 224.671875 82.984375 224.410156 83.699219 224.082031 84.394531 C 223.757812 85.089844 223.375 85.753906 222.9375 86.382812 C 222.496094 87.011719 222.007812 87.601562 221.464844 88.144531 C 220.925781 88.691406 220.339844 89.1875 219.714844 89.628906 C 219.085938 90.074219 218.425781 90.460938 217.734375 90.792969 C 217.039062 91.125 216.320312 91.390625 215.582031 91.597656 C 214.839844 91.804688 214.089844 91.949219 213.324219 92.027344 C 212.558594 92.101562 211.792969 92.113281 211.023438 92.058594 C 210.851562 92.917969 210.597656 93.753906 210.257812 94.5625 C 209.921875 95.371094 209.507812 96.140625 209.019531 96.867188 C 208.527344 97.59375 207.972656 98.265625 207.347656 98.882812 C 206.726562 99.5 206.046875 100.050781 205.316406 100.535156 C 204.582031 101.019531 203.808594 101.425781 202.996094 101.757812 C 202.183594 102.089844 201.347656 102.339844 200.484375 102.503906 C 199.621094 102.671875 198.75 102.75 197.875 102.746094 C 196.996094 102.738281 196.125 102.648438 195.265625 102.472656 C 195.074219 104.214844 194.558594 105.855469 193.71875 107.390625 C 192.878906 108.929688 191.773438 110.25 190.410156 111.351562 C 190.410156 111.351562 205.992188 113.308594 214.421875 97.164062 C 222.664062 95.273438 225.980469 92.167969 231.53125 86.382812 C 237.542969 80.132812 246.828125 88.574219 249.605469 95.128906 Z M 259.527344 120.335938 " fill-opacity="1" fill-rule="nonzero"/><path fill="#f9b32f" d="M 116.707031 96.949219 L 116.070312 98.421875 L 109.019531 115.9375 C 121.46875 124.398438 134.707031 131.367188 148.734375 136.851562 C 147.773438 135.558594 146.976562 134.171875 146.347656 132.691406 C 145.714844 131.210938 145.269531 129.679688 145.003906 128.09375 C 144.738281 126.503906 144.664062 124.910156 144.777344 123.304688 C 144.894531 121.699219 145.195312 120.132812 145.683594 118.597656 C 145.191406 118.34375 144.714844 118.054688 144.261719 117.738281 C 143.804688 117.421875 143.371094 117.078125 142.957031 116.707031 C 142.546875 116.335938 142.160156 115.941406 141.796875 115.523438 C 141.433594 115.101562 141.101562 114.660156 140.792969 114.199219 C 140.488281 113.738281 140.210938 113.257812 139.964844 112.761719 C 139.71875 112.261719 139.507812 111.753906 139.328125 111.230469 C 139.144531 110.703125 139 110.171875 138.886719 109.628906 C 138.773438 109.085938 138.691406 108.539062 138.648438 107.988281 C 138.605469 107.433594 138.597656 106.882812 138.621094 106.328125 C 138.648438 105.773438 138.707031 105.226562 138.804688 104.679688 C 138.898438 104.132812 139.03125 103.597656 139.195312 103.066406 C 139.355469 102.535156 139.554688 102.019531 139.78125 101.515625 C 140.011719 101.011719 140.273438 100.523438 140.5625 100.050781 C 140.855469 99.578125 141.175781 99.128906 141.523438 98.695312 C 141.871094 98.265625 142.246094 97.855469 142.644531 97.472656 C 143.042969 97.085938 143.46875 96.730469 143.914062 96.398438 C 143.003906 92.753906 143.09375 89.132812 144.1875 85.539062 C 143.167969 85.867188 142.117188 86.042969 141.046875 86.0625 C 139.972656 86.085938 138.917969 85.949219 137.886719 85.660156 C 136.851562 85.371094 135.882812 84.941406 134.976562 84.367188 C 134.070312 83.792969 133.265625 83.097656 132.566406 82.289062 C 131.582031 83.222656 130.464844 83.949219 129.210938 84.460938 C 127.957031 84.976562 126.652344 85.25 125.296875 85.273438 C 125.277344 85.914062 125.207031 86.554688 125.09375 87.183594 C 124.976562 87.816406 124.8125 88.4375 124.605469 89.042969 C 124.394531 89.652344 124.140625 90.238281 123.839844 90.808594 C 123.542969 91.378906 123.203125 91.921875 122.820312 92.4375 C 122.441406 92.957031 122.023438 93.441406 121.566406 93.898438 C 121.113281 94.351562 120.625 94.769531 120.109375 95.152344 C 119.589844 95.53125 119.046875 95.871094 118.476562 96.171875 C 117.90625 96.472656 117.320312 96.726562 116.710938 96.9375 " fill-opacity="1" fill-rule="nonzero"/><path fill="#f1892d" d="M 116.707031 96.949219 L 116.070312 98.421875 L 109.019531 115.9375 C 111.105469 117.351562 113.210938 118.71875 115.328125 120.042969 L 120.199219 108.066406 C 124.5625 98.199219 133.433594 99.355469 133.433594 99.355469 C 130.816406 111.851562 139.105469 117.644531 139.105469 117.644531 C 138.1875 123.351562 138.507812 128.574219 139.804688 133.113281 C 142.738281 134.429688 145.714844 135.675781 148.734375 136.863281 C 147.773438 135.570312 146.976562 134.183594 146.347656 132.703125 C 145.714844 131.222656 145.269531 129.691406 145.003906 128.105469 C 144.738281 126.519531 144.664062 124.921875 144.777344 123.316406 C 144.894531 121.714844 145.195312 120.144531 145.683594 118.613281 C 145.191406 118.355469 144.714844 118.070312 144.261719 117.753906 C 143.804688 117.4375 143.371094 117.09375 142.957031 116.722656 C 142.546875 116.351562 142.160156 115.953125 141.796875 115.535156 C 141.433594 115.113281 141.101562 114.671875 140.792969 114.210938 C 140.488281 113.75 140.210938 113.269531 139.964844 112.773438 C 139.71875 112.277344 139.507812 111.765625 139.328125 111.242188 C 139.144531 110.71875 139 110.183594 138.886719 109.640625 C 138.773438 109.097656 138.691406 108.550781 138.648438 108 C 138.605469 107.449219 138.597656 106.894531 138.621094 106.339844 C 138.648438 105.789062 138.707031 105.238281 138.804688 104.691406 C 138.898438 104.144531 139.03125 103.609375 139.195312 103.078125 C 139.355469 102.550781 139.554688 102.03125 139.78125 101.527344 C 140.011719 101.023438 140.273438 100.535156 140.5625 100.0625 C 140.855469 99.589844 141.175781 99.140625 141.523438 98.707031 C 141.871094 98.277344 142.246094 97.867188 142.644531 97.484375 C 143.042969 97.101562 143.46875 96.742188 143.914062 96.410156 C 143.003906 92.765625 143.09375 89.148438 144.1875 85.554688 C 143.164062 85.882812 142.117188 86.054688 141.042969 86.074219 C 139.972656 86.09375 138.917969 85.957031 137.882812 85.667969 C 136.851562 85.378906 135.878906 84.945312 134.976562 84.367188 C 134.070312 83.792969 133.265625 83.097656 132.566406 82.289062 C 131.582031 83.222656 130.464844 83.949219 129.210938 84.460938 C 127.957031 84.976562 126.652344 85.25 125.296875 85.273438 C 125.277344 85.914062 125.207031 86.554688 125.09375 87.183594 C 124.976562 87.816406 124.8125 88.4375 124.605469 89.042969 C 124.394531 89.652344 124.140625 90.238281 123.839844 90.808594 C 123.542969 91.378906 123.203125 91.921875 122.820312 92.4375 C 122.441406 92.957031 122.023438 93.441406 121.566406 93.898438 C 121.113281 94.351562 120.625 94.769531 120.109375 95.152344 C 119.589844 95.53125 119.046875 95.871094 118.476562 96.171875 C 117.90625 96.472656 117.320312 96.726562 116.710938 96.9375 " fill-opacity="1" fill-rule="nonzero"/><path fill="#f5e3b9" d="M 104.28125 58.507812 C 104.351562 59.96875 102.132812 60.082031 102.054688 58.621094 C 101.976562 57.191406 102.082031 55.777344 102.363281 54.371094 C 96.257812 54.878906 92.917969 61.664062 95.550781 66.75 C 95.617188 66.84375 95.667969 66.9375 95.707031 67.042969 C 96.238281 67.976562 96.921875 68.78125 97.757812 69.457031 C 98.886719 70.382812 97.472656 72.097656 96.34375 71.175781 C 95.558594 70.535156 94.875 69.800781 94.296875 68.972656 C 93.640625 69.433594 93.03125 69.945312 92.464844 70.507812 C 91.898438 71.070312 91.378906 71.675781 90.914062 72.324219 C 90.449219 72.972656 90.039062 73.65625 89.6875 74.371094 C 89.339844 75.089844 89.050781 75.832031 88.820312 76.597656 C 88.59375 77.363281 88.433594 78.140625 88.339844 78.933594 C 88.242188 79.726562 88.210938 80.519531 88.25 81.320312 C 88.289062 82.117188 88.390625 82.90625 88.5625 83.683594 C 88.730469 84.464844 88.964844 85.226562 89.261719 85.964844 C 89.558594 86.707031 89.914062 87.417969 90.332031 88.101562 C 90.75 88.78125 91.21875 89.421875 91.746094 90.027344 C 92.269531 90.628906 92.839844 91.183594 93.457031 91.691406 C 94.074219 92.199219 94.730469 92.652344 95.425781 93.046875 C 96.117188 93.445312 96.839844 93.785156 97.589844 94.058594 C 98.339844 94.335938 99.105469 94.550781 99.894531 94.699219 C 100.679688 94.847656 101.472656 94.929688 102.269531 94.945312 C 103.070312 94.960938 103.867188 94.914062 104.65625 94.796875 C 103.101562 93.550781 101.910156 92.023438 101.082031 90.214844 C 100.472656 88.890625 102.496094 87.960938 103.105469 89.289062 C 103.582031 90.339844 104.21875 91.28125 105.015625 92.117188 C 105.808594 92.953125 106.722656 93.636719 107.746094 94.167969 C 107.875 94.199219 107.996094 94.257812 108.101562 94.339844 C 109.066406 94.804688 110.082031 95.109375 111.144531 95.257812 C 112.207031 95.410156 113.265625 95.394531 114.324219 95.21875 C 115.382812 95.042969 116.390625 94.710938 117.34375 94.226562 C 118.300781 93.738281 119.160156 93.121094 119.925781 92.371094 C 120.691406 91.617188 121.324219 90.769531 121.824219 89.824219 C 122.328125 88.878906 122.675781 87.878906 122.867188 86.824219 C 123.0625 85.773438 123.089844 84.714844 122.957031 83.652344 C 122.824219 82.589844 122.535156 81.574219 122.085938 80.601562 C 121.480469 79.273438 123.5 78.347656 124.109375 79.679688 C 124.609375 80.757812 124.949219 81.886719 125.132812 83.0625 C 125.679688 83.058594 126.226562 83 126.761719 82.894531 C 127.300781 82.785156 127.824219 82.625 128.332031 82.417969 C 128.839844 82.207031 129.324219 81.953125 129.78125 81.652344 C 130.242188 81.347656 130.664062 81.007812 131.058594 80.621094 C 131.449219 80.238281 131.800781 79.820312 132.113281 79.371094 C 132.425781 78.917969 132.691406 78.441406 132.914062 77.941406 C 133.132812 77.4375 133.300781 76.921875 133.421875 76.386719 C 133.542969 75.851562 133.609375 75.308594 133.625 74.761719 C 133.660156 73.300781 135.886719 73.351562 135.851562 74.816406 C 135.804688 76.910156 135.1875 78.824219 134.007812 80.558594 C 134.335938 80.972656 134.699219 81.355469 135.097656 81.707031 C 135.496094 82.054688 135.925781 82.363281 136.378906 82.632812 C 136.835938 82.90625 137.3125 83.132812 137.808594 83.316406 C 138.304688 83.5 138.816406 83.636719 139.339844 83.726562 C 139.859375 83.816406 140.386719 83.855469 140.917969 83.851562 C 141.449219 83.84375 141.972656 83.789062 142.492188 83.6875 C 143.011719 83.585938 143.519531 83.4375 144.011719 83.238281 C 144.503906 83.042969 144.976562 82.804688 145.421875 82.523438 L 145.472656 82.496094 C 146.65625 80.304688 148.238281 78.457031 150.226562 76.953125 C 152.277344 75.421875 154.523438 74.269531 156.960938 73.496094 C 157.546875 71.683594 158.476562 70.074219 159.75 68.660156 C 159.464844 67.875 159.070312 67.148438 158.570312 66.476562 C 158.074219 65.808594 157.488281 65.21875 156.820312 64.71875 C 156.152344 64.21875 155.425781 63.820312 154.640625 63.53125 C 153.859375 63.238281 153.046875 63.0625 152.214844 63.007812 C 152.304688 63.480469 152.375 63.964844 152.421875 64.460938 C 152.558594 65.914062 150.335938 66.125 150.207031 64.667969 C 149.410156 56.246094 140.894531 51.671875 133.769531 54.207031 C 133.738281 54.222656 133.699219 54.234375 133.664062 54.242188 C 132.078125 54.828125 130.671875 55.703125 129.449219 56.863281 C 128.378906 57.867188 126.851562 56.25 127.921875 55.242188 C 129.109375 54.117188 130.449219 53.21875 131.945312 52.542969 C 128.332031 43.222656 116.195312 40.292969 108.730469 47.363281 C 106.917969 49.070312 105.640625 51.113281 104.898438 53.488281 C 104.886719 53.5625 104.867188 53.632812 104.835938 53.699219 C 104.375 55.269531 104.191406 56.875 104.28125 58.507812 " fill-opacity="1" fill-rule="nonzero"/><path fill="#361d06" d="M 226.363281 64.640625 L 228.082031 61.125 C 228.273438 60.734375 228.53125 60.394531 228.859375 60.109375 C 229.183594 59.824219 229.554688 59.609375 229.964844 59.46875 C 230.378906 59.328125 230.800781 59.269531 231.234375 59.296875 C 231.667969 59.324219 232.082031 59.433594 232.472656 59.625 C 232.863281 59.816406 233.203125 60.074219 233.492188 60.402344 C 233.777344 60.726562 233.992188 61.09375 234.132812 61.503906 C 234.273438 61.914062 234.332031 62.339844 234.304688 62.769531 C 234.277344 63.203125 234.167969 63.617188 233.976562 64.007812 L 232.246094 67.550781 C 232.054688 67.941406 231.792969 68.277344 231.464844 68.5625 C 231.136719 68.847656 230.765625 69.058594 230.351562 69.199219 C 229.941406 69.335938 229.515625 69.390625 229.082031 69.359375 C 228.648438 69.332031 228.238281 69.21875 227.847656 69.027344 C 227.457031 68.832031 227.121094 68.570312 226.835938 68.246094 C 226.546875 67.917969 226.335938 67.546875 226.199219 67.136719 C 226.058594 66.722656 226.003906 66.300781 226.035156 65.867188 C 226.066406 65.433594 226.175781 65.023438 226.371094 64.636719 " fill-opacity="1" fill-rule="nonzero"/><path fill="#ffffff" d="M 230.0625 62.152344 L 228.347656 65.660156 C 227.746094 66.910156 229.628906 67.808594 230.230469 66.578125 L 231.960938 63.03125 C 232.027344 62.90625 232.066406 62.769531 232.078125 62.628906 C 232.085938 62.488281 232.070312 62.347656 232.023438 62.214844 C 231.976562 62.078125 231.90625 61.957031 231.808594 61.851562 C 231.714844 61.746094 231.601562 61.664062 231.472656 61.605469 C 231.34375 61.542969 231.207031 61.511719 231.0625 61.507812 C 230.921875 61.503906 230.785156 61.527344 230.652344 61.578125 C 230.519531 61.628906 230.402344 61.707031 230.296875 61.804688 C 230.195312 61.90625 230.117188 62.019531 230.0625 62.152344 " fill-opacity="1" fill-rule="nonzero"/><path fill="#361d06" d="M 116.816406 48.632812 C 117.300781 48.632812 117.78125 48.679688 118.257812 48.773438 C 118.734375 48.867188 119.199219 49.007812 119.648438 49.191406 C 120.097656 49.378906 120.523438 49.605469 120.925781 49.875 C 121.332031 50.144531 121.707031 50.449219 122.050781 50.792969 C 122.394531 51.132812 122.699219 51.507812 122.96875 51.910156 C 123.242188 52.3125 123.46875 52.738281 123.65625 53.1875 C 123.839844 53.636719 123.980469 54.097656 124.074219 54.574219 C 124.171875 55.046875 124.21875 55.527344 124.21875 56.015625 C 124.21875 56.457031 124.179688 56.898438 124.101562 57.339844 C 124.023438 56.917969 123.910156 56.507812 123.761719 56.105469 C 123.609375 55.703125 123.425781 55.316406 123.210938 54.949219 C 122.992188 54.578125 122.746094 54.230469 122.46875 53.902344 C 122.191406 53.578125 121.886719 53.277344 121.558594 53.003906 C 121.230469 52.730469 120.878906 52.484375 120.503906 52.273438 C 120.132812 52.058594 119.746094 51.878906 119.34375 51.734375 C 118.9375 51.589844 118.523438 51.480469 118.101562 51.40625 C 117.679688 51.332031 117.253906 51.296875 116.824219 51.296875 C 116.394531 51.296875 115.96875 51.332031 115.546875 51.40625 C 115.125 51.480469 114.710938 51.589844 114.308594 51.734375 C 113.90625 51.878906 113.515625 52.058594 113.144531 52.273438 C 112.773438 52.484375 112.421875 52.730469 112.09375 53.003906 C 111.761719 53.277344 111.457031 53.578125 111.179688 53.902344 C 110.902344 54.230469 110.65625 54.578125 110.441406 54.949219 C 110.222656 55.316406 110.039062 55.703125 109.890625 56.105469 C 109.742188 56.507812 109.625 56.917969 109.550781 57.339844 C 109.46875 56.902344 109.429688 56.457031 109.429688 56.015625 C 109.429688 55.53125 109.476562 55.050781 109.570312 54.574219 C 109.664062 54.101562 109.804688 53.640625 109.988281 53.191406 C 110.175781 52.742188 110.402344 52.320312 110.671875 51.914062 C 110.941406 51.511719 111.25 51.140625 111.589844 50.796875 C 111.933594 50.457031 112.308594 50.148438 112.710938 49.878906 C 113.113281 49.609375 113.539062 49.382812 113.988281 49.199219 C 114.433594 49.011719 114.898438 48.871094 115.375 48.777344 C 115.847656 48.679688 116.328125 48.632812 116.816406 48.632812 " fill-opacity="1" fill-rule="evenodd"/><path fill="#361d06" d="M 91.800781 83.027344 C 91.609375 82.582031 91.46875 82.121094 91.367188 81.648438 C 91.269531 81.171875 91.21875 80.691406 91.21875 80.207031 C 91.214844 79.722656 91.257812 79.242188 91.347656 78.765625 C 91.441406 78.292969 91.578125 77.828125 91.761719 77.378906 C 91.941406 76.929688 92.167969 76.503906 92.433594 76.097656 C 92.703125 75.695312 93.003906 75.320312 93.347656 74.972656 C 93.6875 74.628906 94.058594 74.320312 94.460938 74.046875 C 94.863281 73.777344 95.289062 73.546875 95.734375 73.355469 C 96.148438 73.179688 96.570312 73.042969 97.007812 72.941406 C 96.648438 73.175781 96.3125 73.441406 96 73.734375 C 95.6875 74.027344 95.402344 74.347656 95.144531 74.6875 C 94.886719 75.03125 94.664062 75.394531 94.46875 75.777344 C 94.273438 76.160156 94.113281 76.554688 93.988281 76.964844 C 93.863281 77.375 93.777344 77.792969 93.722656 78.21875 C 93.671875 78.644531 93.65625 79.070312 93.679688 79.5 C 93.703125 79.925781 93.761719 80.351562 93.859375 80.769531 C 93.953125 81.1875 94.085938 81.59375 94.253906 81.988281 C 94.421875 82.382812 94.621094 82.757812 94.851562 83.121094 C 95.085938 83.480469 95.347656 83.816406 95.640625 84.132812 C 95.933594 84.445312 96.25 84.734375 96.589844 84.992188 C 96.933594 85.25 97.292969 85.480469 97.675781 85.675781 C 98.058594 85.871094 98.453125 86.035156 98.863281 86.164062 C 99.273438 86.289062 99.691406 86.382812 100.117188 86.4375 C 100.542969 86.492188 100.96875 86.511719 101.398438 86.492188 C 101.828125 86.472656 102.253906 86.417969 102.671875 86.324219 C 102.296875 86.566406 101.90625 86.773438 101.496094 86.949219 C 101.046875 87.136719 100.585938 87.28125 100.109375 87.378906 C 99.632812 87.476562 99.152344 87.527344 98.667969 87.53125 C 98.179688 87.535156 97.699219 87.488281 97.222656 87.398438 C 96.746094 87.308594 96.28125 87.171875 95.832031 86.988281 C 95.382812 86.804688 94.953125 86.582031 94.546875 86.316406 C 94.140625 86.046875 93.765625 85.746094 93.421875 85.40625 C 93.074219 85.0625 92.765625 84.691406 92.492188 84.292969 C 92.21875 83.890625 91.988281 83.46875 91.800781 83.019531 " fill-opacity="1" fill-rule="evenodd"/><path fill="#361d06" d="M 116.597656 90.636719 C 116.265625 90.785156 115.917969 90.890625 115.558594 90.960938 C 115.203125 91.03125 114.839844 91.0625 114.476562 91.054688 C 114.113281 91.042969 113.753906 90.996094 113.398438 90.90625 C 113.046875 90.820312 112.707031 90.691406 112.378906 90.53125 C 112.054688 90.367188 111.75 90.171875 111.464844 89.941406 C 111.183594 89.710938 110.929688 89.453125 110.703125 89.167969 C 110.476562 88.882812 110.285156 88.578125 110.125 88.25 C 109.964844 87.921875 109.84375 87.582031 109.761719 87.226562 C 110.085938 87.710938 110.484375 88.121094 110.957031 88.464844 C 111.425781 88.808594 111.941406 89.0625 112.5 89.222656 C 113.058594 89.386719 113.628906 89.449219 114.210938 89.410156 C 114.792969 89.375 115.347656 89.238281 115.882812 89.003906 C 116.417969 88.773438 116.894531 88.457031 117.316406 88.054688 C 117.738281 87.652344 118.082031 87.195312 118.339844 86.671875 C 118.601562 86.152344 118.765625 85.605469 118.832031 85.027344 C 118.898438 84.449219 118.863281 83.878906 118.730469 83.3125 C 118.894531 83.558594 119.035156 83.820312 119.148438 84.09375 C 119.277344 84.394531 119.378906 84.703125 119.449219 85.023438 C 119.519531 85.339844 119.558594 85.664062 119.5625 85.988281 C 119.570312 86.316406 119.542969 86.640625 119.488281 86.960938 C 119.429688 87.28125 119.339844 87.59375 119.222656 87.898438 C 119.101562 88.199219 118.957031 88.492188 118.777344 88.765625 C 118.601562 89.039062 118.402344 89.292969 118.175781 89.53125 C 117.949219 89.765625 117.699219 89.976562 117.433594 90.164062 C 117.164062 90.347656 116.878906 90.507812 116.582031 90.636719 " fill-opacity="1" fill-rule="evenodd"/><path fill="#361d06" d="M 144.042969 79.023438 C 143.707031 79.167969 143.363281 79.277344 143.003906 79.347656 C 142.644531 79.417969 142.285156 79.449219 141.921875 79.4375 C 141.554688 79.429688 141.195312 79.382812 140.84375 79.292969 C 140.488281 79.207031 140.148438 79.082031 139.820312 78.917969 C 139.496094 78.753906 139.191406 78.558594 138.90625 78.328125 C 138.625 78.101562 138.371094 77.84375 138.144531 77.558594 C 137.917969 77.273438 137.722656 76.964844 137.566406 76.636719 C 137.40625 76.308594 137.285156 75.96875 137.203125 75.613281 C 137.527344 76.097656 137.925781 76.511719 138.394531 76.855469 C 138.867188 77.199219 139.382812 77.449219 139.941406 77.613281 C 140.5 77.777344 141.070312 77.839844 141.652344 77.800781 C 142.234375 77.761719 142.792969 77.628906 143.328125 77.394531 C 143.859375 77.160156 144.339844 76.84375 144.761719 76.441406 C 145.183594 76.042969 145.523438 75.582031 145.785156 75.058594 C 146.042969 74.539062 146.207031 73.988281 146.273438 73.410156 C 146.339844 72.832031 146.304688 72.261719 146.171875 71.695312 C 146.335938 71.945312 146.472656 72.207031 146.585938 72.484375 C 146.71875 72.78125 146.820312 73.089844 146.890625 73.410156 C 146.960938 73.726562 146.996094 74.050781 147.003906 74.375 C 147.011719 74.699219 146.984375 75.023438 146.929688 75.34375 C 146.871094 75.667969 146.78125 75.976562 146.664062 76.28125 C 146.542969 76.585938 146.398438 76.875 146.222656 77.148438 C 146.046875 77.425781 145.84375 77.679688 145.617188 77.914062 C 145.390625 78.148438 145.144531 78.359375 144.875 78.546875 C 144.609375 78.734375 144.324219 78.890625 144.023438 79.023438 " fill-opacity="1" fill-rule="evenodd"/><path fill="#361d06" d="M 148.035156 88.554688 C 148.15625 88.085938 148.320312 87.632812 148.527344 87.195312 C 148.738281 86.757812 148.988281 86.34375 149.277344 85.957031 C 149.566406 85.566406 149.894531 85.210938 150.253906 84.886719 C 150.613281 84.5625 151.003906 84.277344 151.421875 84.027344 C 151.835938 83.78125 152.273438 83.574219 152.734375 83.414062 C 153.191406 83.25 153.660156 83.132812 154.140625 83.0625 C 154.621094 82.996094 155.101562 82.972656 155.585938 82.996094 C 156.074219 83.023438 156.550781 83.09375 157.019531 83.210938 C 157.453125 83.320312 157.871094 83.46875 158.273438 83.652344 C 157.84375 83.625 157.417969 83.632812 156.988281 83.679688 C 156.5625 83.722656 156.140625 83.804688 155.730469 83.921875 C 155.316406 84.042969 154.917969 84.195312 154.53125 84.382812 C 154.144531 84.570312 153.777344 84.789062 153.429688 85.042969 C 153.082031 85.292969 152.757812 85.574219 152.460938 85.882812 C 152.160156 86.191406 151.890625 86.519531 151.648438 86.875 C 151.410156 87.230469 151.199219 87.605469 151.023438 87.996094 C 150.847656 88.386719 150.707031 88.789062 150.601562 89.207031 C 150.496094 89.621094 150.429688 90.042969 150.394531 90.46875 C 150.363281 90.898438 150.371094 91.324219 150.414062 91.75 C 150.453125 92.179688 150.535156 92.597656 150.652344 93.011719 C 150.765625 93.421875 150.917969 93.824219 151.101562 94.210938 C 151.289062 94.597656 151.507812 94.964844 151.757812 95.3125 C 152.007812 95.660156 152.285156 95.984375 152.59375 96.285156 C 152.898438 96.585938 153.230469 96.859375 153.582031 97.101562 C 153.9375 97.34375 154.308594 97.554688 154.699219 97.730469 C 154.253906 97.703125 153.816406 97.632812 153.382812 97.523438 C 152.910156 97.40625 152.457031 97.242188 152.019531 97.03125 C 151.582031 96.824219 151.167969 96.574219 150.777344 96.285156 C 150.386719 95.996094 150.03125 95.671875 149.707031 95.308594 C 149.378906 94.949219 149.09375 94.5625 148.84375 94.144531 C 148.597656 93.730469 148.390625 93.292969 148.230469 92.835938 C 148.066406 92.378906 147.949219 91.910156 147.878906 91.433594 C 147.808594 90.953125 147.785156 90.46875 147.8125 89.988281 C 147.835938 89.503906 147.910156 89.027344 148.027344 88.554688 " fill-opacity="1" fill-rule="evenodd"/><path fill="#361d06" d="M 158.480469 137.921875 C 158.066406 137.726562 157.671875 137.488281 157.304688 137.214844 C 156.933594 136.941406 156.59375 136.636719 156.285156 136.296875 C 155.976562 135.957031 155.707031 135.589844 155.46875 135.195312 C 155.230469 134.800781 155.035156 134.386719 154.882812 133.957031 C 154.726562 133.523438 154.613281 133.082031 154.546875 132.628906 C 154.480469 132.171875 154.457031 131.714844 154.480469 131.257812 C 154.503906 130.800781 154.570312 130.347656 154.679688 129.902344 C 154.792969 129.457031 154.945312 129.027344 155.144531 128.613281 C 155.324219 128.230469 155.535156 127.863281 155.78125 127.519531 C 155.679688 127.914062 155.609375 128.3125 155.574219 128.714844 C 155.539062 129.121094 155.539062 129.523438 155.578125 129.929688 C 155.613281 130.332031 155.683594 130.730469 155.789062 131.125 C 155.894531 131.515625 156.03125 131.894531 156.203125 132.265625 C 156.375 132.632812 156.578125 132.980469 156.8125 133.316406 C 157.042969 133.648438 157.304688 133.957031 157.589844 134.246094 C 157.878906 134.535156 158.1875 134.792969 158.519531 135.027344 C 158.851562 135.261719 159.203125 135.464844 159.570312 135.636719 C 159.9375 135.8125 160.320312 135.953125 160.710938 136.058594 C 161.101562 136.164062 161.5 136.238281 161.90625 136.277344 C 162.3125 136.3125 162.71875 136.316406 163.121094 136.285156 C 163.527344 136.25 163.925781 136.183594 164.320312 136.082031 C 164.714844 135.980469 165.097656 135.84375 165.464844 135.675781 C 165.835938 135.507812 166.191406 135.308594 166.523438 135.082031 C 166.859375 134.851562 167.171875 134.59375 167.464844 134.308594 C 167.753906 134.027344 168.019531 133.71875 168.257812 133.390625 C 168.152344 133.796875 168.015625 134.195312 167.839844 134.578125 C 167.640625 134.992188 167.40625 135.382812 167.132812 135.75 C 166.859375 136.121094 166.550781 136.457031 166.210938 136.765625 C 165.867188 137.074219 165.5 137.347656 165.105469 137.582031 C 164.710938 137.816406 164.296875 138.011719 163.867188 138.167969 C 163.433594 138.324219 162.988281 138.433594 162.535156 138.5 C 162.078125 138.570312 161.621094 138.589844 161.164062 138.570312 C 160.703125 138.546875 160.25 138.480469 159.804688 138.371094 C 159.359375 138.257812 158.925781 138.105469 158.511719 137.910156 " fill-opacity="1" fill-rule="evenodd"/><path fill="#361d06" d="M 187.441406 69.816406 C 187.898438 69.878906 188.34375 69.984375 188.777344 70.132812 C 189.214844 70.28125 189.628906 70.472656 190.027344 70.703125 C 190.425781 70.9375 190.796875 71.203125 191.140625 71.507812 C 191.484375 71.8125 191.796875 72.148438 192.074219 72.511719 C 192.355469 72.878906 192.59375 73.265625 192.796875 73.679688 C 193 74.09375 193.15625 74.519531 193.273438 74.964844 C 193.390625 75.410156 193.464844 75.859375 193.492188 76.320312 C 193.519531 76.777344 193.503906 77.234375 193.441406 77.6875 C 193.386719 78.113281 193.292969 78.53125 193.160156 78.9375 C 193.140625 78.53125 193.085938 78.132812 193 77.734375 C 192.910156 77.335938 192.789062 76.953125 192.632812 76.574219 C 192.476562 76.199219 192.289062 75.839844 192.074219 75.496094 C 191.855469 75.15625 191.609375 74.832031 191.332031 74.53125 C 191.058594 74.234375 190.757812 73.957031 190.4375 73.710938 C 190.113281 73.460938 189.773438 73.242188 189.414062 73.054688 C 189.050781 72.867188 188.675781 72.710938 188.289062 72.585938 C 187.902344 72.460938 187.503906 72.375 187.101562 72.320312 C 186.699219 72.265625 186.292969 72.246094 185.886719 72.261719 C 185.480469 72.277344 185.078125 72.328125 184.679688 72.414062 C 184.28125 72.5 183.894531 72.617188 183.515625 72.773438 C 183.140625 72.925781 182.777344 73.109375 182.433594 73.324219 C 182.085938 73.542969 181.765625 73.785156 181.460938 74.058594 C 181.160156 74.332031 180.882812 74.628906 180.632812 74.949219 C 180.382812 75.269531 180.160156 75.609375 179.96875 75.96875 C 179.78125 76.324219 179.621094 76.699219 179.496094 77.085938 C 179.476562 76.667969 179.496094 76.25 179.550781 75.835938 C 179.609375 75.378906 179.71875 74.9375 179.867188 74.5 C 180.015625 74.066406 180.207031 73.652344 180.441406 73.253906 C 180.671875 72.859375 180.941406 72.488281 181.246094 72.144531 C 181.550781 71.800781 181.886719 71.488281 182.253906 71.210938 C 182.617188 70.933594 183.007812 70.691406 183.421875 70.492188 C 183.835938 70.289062 184.265625 70.128906 184.710938 70.011719 C 185.15625 69.894531 185.609375 69.824219 186.066406 69.796875 C 186.527344 69.765625 186.984375 69.785156 187.441406 69.847656 " fill-opacity="1" fill-rule="evenodd"/><path fill="#361d06" d="M 201.425781 96.21875 C 201.179688 96.355469 200.921875 96.464844 200.652344 96.550781 C 200.382812 96.636719 200.109375 96.695312 199.828125 96.726562 C 199.550781 96.757812 199.269531 96.761719 198.988281 96.738281 C 198.707031 96.714844 198.429688 96.667969 198.160156 96.589844 C 197.890625 96.511719 197.628906 96.410156 197.378906 96.28125 C 197.128906 96.152344 196.890625 96 196.671875 95.824219 C 196.449219 95.652344 196.246094 95.457031 196.0625 95.242188 C 195.882812 95.027344 195.722656 94.800781 195.582031 94.554688 C 195.457031 94.324219 195.351562 94.089844 195.265625 93.839844 C 195.585938 94.226562 195.964844 94.546875 196.398438 94.800781 C 196.832031 95.054688 197.296875 95.230469 197.792969 95.320312 C 198.285156 95.414062 198.78125 95.417969 199.277344 95.339844 C 199.773438 95.257812 200.242188 95.09375 200.683594 94.851562 C 201.121094 94.605469 201.507812 94.296875 201.835938 93.917969 C 202.167969 93.539062 202.425781 93.117188 202.605469 92.648438 C 202.789062 92.179688 202.886719 91.695312 202.898438 91.195312 C 202.910156 90.691406 202.835938 90.203125 202.679688 89.726562 C 202.84375 89.925781 202.992188 90.140625 203.117188 90.367188 C 203.253906 90.613281 203.363281 90.871094 203.449219 91.140625 C 203.535156 91.40625 203.59375 91.679688 203.625 91.960938 C 203.65625 92.242188 203.660156 92.519531 203.636719 92.800781 C 203.613281 93.082031 203.5625 93.355469 203.484375 93.625 C 203.410156 93.898438 203.304688 94.15625 203.175781 94.40625 C 203.046875 94.660156 202.898438 94.894531 202.722656 95.113281 C 202.546875 95.335938 202.351562 95.535156 202.136719 95.71875 C 201.921875 95.902344 201.691406 96.0625 201.445312 96.199219 " fill-opacity="1" fill-rule="evenodd"/><path fill="#361d06" d="M 186.09375 124.308594 C 185.941406 124.742188 185.75 125.160156 185.519531 125.554688 C 185.285156 125.953125 185.019531 126.320312 184.710938 126.664062 C 184.40625 127.007812 184.070312 127.320312 183.703125 127.597656 C 183.339844 127.875 182.949219 128.113281 182.535156 128.316406 C 182.121094 128.515625 181.691406 128.675781 181.246094 128.792969 C 180.800781 128.910156 180.347656 128.980469 179.890625 129.011719 C 179.429688 129.039062 178.972656 129.019531 178.515625 128.957031 C 178.058594 128.898438 177.613281 128.789062 177.179688 128.640625 C 176.78125 128.503906 176.394531 128.328125 176.027344 128.125 C 176.429688 128.1875 176.832031 128.210938 177.242188 128.203125 C 177.648438 128.191406 178.050781 128.148438 178.449219 128.070312 C 178.847656 127.988281 179.238281 127.875 179.617188 127.730469 C 179.996094 127.582031 180.359375 127.40625 180.707031 127.195312 C 181.054688 126.984375 181.382812 126.746094 181.691406 126.480469 C 181.996094 126.210938 182.277344 125.921875 182.53125 125.605469 C 182.789062 125.289062 183.015625 124.953125 183.210938 124.597656 C 183.410156 124.242188 183.574219 123.871094 183.707031 123.488281 C 183.839844 123.105469 183.9375 122.714844 184.003906 122.3125 C 184.066406 121.910156 184.097656 121.507812 184.089844 121.101562 C 184.082031 120.695312 184.042969 120.292969 183.964844 119.894531 C 183.890625 119.496094 183.78125 119.105469 183.636719 118.726562 C 183.492188 118.347656 183.316406 117.980469 183.109375 117.632812 C 182.898438 117.285156 182.664062 116.957031 182.398438 116.648438 C 182.132812 116.339844 181.84375 116.054688 181.527344 115.796875 C 181.214844 115.542969 180.878906 115.3125 180.527344 115.113281 C 180.945312 115.175781 181.351562 115.277344 181.753906 115.417969 C 182.1875 115.566406 182.605469 115.757812 183 115.988281 C 183.398438 116.21875 183.769531 116.488281 184.113281 116.792969 C 184.457031 117.097656 184.769531 117.433594 185.046875 117.796875 C 185.328125 118.164062 185.566406 118.554688 185.769531 118.964844 C 185.96875 119.378906 186.128906 119.808594 186.246094 120.25 C 186.363281 120.695312 186.4375 121.148438 186.464844 121.605469 C 186.492188 122.0625 186.472656 122.519531 186.410156 122.976562 C 186.347656 123.429688 186.242188 123.875 186.09375 124.308594 " fill-opacity="1" fill-rule="evenodd"/><path fill="#ffd78c" d="M 198.292969 144.132812 L 192.351562 130.417969 C 191.304688 131.972656 190.035156 133.316406 188.542969 134.453125 C 188.378906 134.578125 188.214844 134.699219 188.046875 134.8125 L 192.566406 145.371094 C 194.484375 144.984375 196.394531 144.566406 198.292969 144.125 " fill-opacity="1" fill-rule="nonzero"/><path fill="#e6e6e6" d="M 206.433594 162.933594 L 200.3125 148.800781 C 198.414062 149.25 196.503906 149.675781 194.578125 150.074219 L 200.589844 164.070312 C 202.539062 163.71875 204.488281 163.335938 206.433594 162.921875 " fill-opacity="1" fill-rule="nonzero"/><path fill="#ffd78c" d="M 238.101562 204.292969 C 225.480469 203.917969 218.511719 190.792969 218.511719 190.792969 L 208.472656 167.621094 C 206.523438 168.054688 204.570312 168.449219 202.605469 168.808594 L 213.132812 193.382812 C 217.53125 203.660156 224.847656 209.003906 236.050781 205.046875 C 236.738281 204.804688 237.421875 204.554688 238.101562 204.304688 " fill-opacity="1" fill-rule="nonzero"/><g fill="#361d06" fill-opacity="1"><g transform="translate(63.550033, 306.059817)"><g><path d="M 1.234375 -12.578125 C 2.503906 -12.878906 3.304688 -13.039062 3.640625 -13.0625 C 4.191406 -13.0625 4.582031 -12.671875 4.8125 -11.890625 L 5.75 -8.359375 L 6.78125 -12.375 C 7.757812 -12.644531 8.429688 -12.785156 8.796875 -12.796875 C 9.210938 -12.753906 9.554688 -12.414062 9.828125 -11.78125 L 10.734375 -8.390625 L 11.75 -12.578125 C 12.40625 -12.878906 12.925781 -13.039062 13.3125 -13.0625 C 14.113281 -13.0625 14.742188 -12.671875 15.203125 -11.890625 L 13.28125 -0.25 C 12.007812 -0.03125 11.207031 0.078125 10.875 0.078125 C 10.144531 0.078125 9.546875 -0.21875 9.078125 -0.8125 L 8.265625 -4.5 L 7.21875 -0.265625 C 6.125 -0.0351562 5.367188 0.078125 4.953125 0.078125 C 4.222656 0.078125 3.613281 -0.242188 3.125 -0.890625 Z M 1.234375 -12.578125 "/></g></g></g><g fill="#361d06" fill-opacity="1"><g transform="translate(78.393138, 306.059817)"><g><path d="M 4.984375 -0.3125 C 4.316406 0.0507812 3.753906 0.234375 3.296875 0.234375 C 2.503906 0.234375 1.898438 -0.0859375 1.484375 -0.734375 L 1.484375 -12.578125 C 2.566406 -12.878906 3.296875 -13.039062 3.671875 -13.0625 C 4.410156 -13.0625 4.890625 -12.722656 5.109375 -12.046875 L 5.109375 -10.65625 C 5.265625 -10.4375 5.71875 -10.328125 6.46875 -10.328125 C 7.382812 -10.328125 8.179688 -10.097656 8.859375 -9.640625 C 9.535156 -9.191406 9.914062 -8.554688 10 -7.734375 L 10.375 -0.296875 C 9.28125 0.0546875 8.539062 0.234375 8.15625 0.234375 C 7.539062 0.234375 7.078125 -0.0820312 6.765625 -0.71875 L 6.40625 -7.015625 C 6.34375 -7.265625 6.15625 -7.421875 5.84375 -7.484375 C 5.3125 -7.421875 5.035156 -7.28125 5.015625 -7.0625 C 4.992188 -6.84375 4.984375 -6.519531 4.984375 -6.09375 Z M 4.984375 -0.3125 "/></g></g></g><g fill="#361d06" fill-opacity="1"><g transform="translate(89.125215, 306.059817)"><g><path d="M 3.9375 -6.671875 L 6.171875 -6.84375 C 6.160156 -7.15625 6.085938 -7.457031 5.953125 -7.75 C 5.816406 -8.050781 5.570312 -8.203125 5.21875 -8.203125 C 4.820312 -8.203125 4.507812 -8.050781 4.28125 -7.75 C 4.050781 -7.445312 3.9375 -7.085938 3.9375 -6.671875 Z M 3.921875 -4.78125 C 4.003906 -4.007812 4.1875 -3.488281 4.46875 -3.21875 C 4.75 -2.957031 5 -2.828125 5.21875 -2.828125 C 5.550781 -2.828125 5.828125 -2.851562 6.046875 -2.90625 C 6.273438 -2.96875 6.398438 -3.285156 6.421875 -3.859375 C 8.609375 -3.859375 9.703125 -3.457031 9.703125 -2.65625 C 9.703125 -2.28125 9.53125 -1.875 9.1875 -1.4375 C 8.84375 -1.007812 8.382812 -0.648438 7.8125 -0.359375 C 7.238281 -0.078125 6.375 0.0625 5.21875 0.0625 C 3.625 0.0625 2.429688 -0.40625 1.640625 -1.34375 C 0.859375 -2.28125 0.46875 -3.570312 0.46875 -5.21875 C 0.46875 -6.914062 0.898438 -8.203125 1.765625 -9.078125 C 2.628906 -9.953125 3.78125 -10.390625 5.21875 -10.390625 C 7.289062 -10.390625 8.546875 -9.828125 8.984375 -8.703125 C 9.429688 -7.578125 9.660156 -6.71875 9.671875 -6.125 C 9.648438 -5.625 9.1875 -5.347656 8.28125 -5.296875 Z M 3.921875 -4.78125 "/></g></g></g><g fill="#361d06" fill-opacity="1"><g transform="translate(98.679207, 306.059817)"><g><path d="M 4.78125 -0.9375 C 4.769531 -0.207031 4.335938 0.179688 3.484375 0.234375 C 3.003906 0.210938 2.25 -0.03125 1.21875 -0.5 L 1.21875 -9.640625 C 2.007812 -10.085938 2.660156 -10.3125 3.171875 -10.3125 C 3.671875 -10.3125 4.257812 -9.90625 4.9375 -9.09375 L 4.9375 -9.921875 C 5.1875 -10.179688 5.535156 -10.3125 5.984375 -10.3125 C 6.898438 -10.3125 7.71875 -10.15625 8.4375 -9.84375 C 9.164062 -9.53125 9.632812 -8.632812 9.84375 -7.15625 L 10.171875 -0.921875 C 9.941406 -0.171875 9.363281 0.203125 8.4375 0.203125 C 7.832031 0.191406 7.222656 -0.132812 6.609375 -0.78125 L 6.265625 -6.890625 C 6.148438 -7.015625 6.050781 -7.113281 5.96875 -7.1875 C 5.882812 -7.269531 5.628906 -7.3125 5.203125 -7.3125 C 5.046875 -7.3125 4.9375 -7.203125 4.875 -6.984375 C 4.8125 -6.773438 4.78125 -6.453125 4.78125 -6.015625 Z M 4.78125 -0.9375 "/></g></g></g><g fill="#361d06" fill-opacity="1"><g transform="translate(109.202665, 306.059817)"><g/></g></g><g fill="#361d06" fill-opacity="1"><g transform="translate(114.510642, 306.059817)"><g><path d="M 1.1875 -12.453125 C 1.1875 -12.960938 1.425781 -13.328125 1.90625 -13.546875 C 2.394531 -13.773438 2.835938 -13.890625 3.234375 -13.890625 C 3.742188 -13.890625 4.164062 -13.769531 4.5 -13.53125 C 4.84375 -13.300781 5.015625 -12.941406 5.015625 -12.453125 C 5.015625 -12.148438 4.832031 -11.835938 4.46875 -11.515625 C 4.113281 -11.203125 3.585938 -11.046875 2.890625 -11.046875 C 2.171875 -11.046875 1.707031 -11.207031 1.5 -11.53125 C 1.289062 -11.863281 1.1875 -12.171875 1.1875 -12.453125 Z M 1.21875 -9.34375 C 2.144531 -9.769531 2.890625 -9.984375 3.453125 -9.984375 C 4.160156 -9.953125 4.726562 -9.628906 5.15625 -9.015625 L 5.15625 -0.71875 C 4.363281 -0.0820312 3.660156 0.234375 3.046875 0.234375 C 2.140625 0.234375 1.53125 -0.175781 1.21875 -1 Z M 1.21875 -9.34375 "/></g></g></g><g fill="#361d06" fill-opacity="1"><g transform="translate(120.027237, 306.059817)"><g><path d="M 1.828125 -7.484375 L 0.875 -7.484375 C 0.457031 -8.171875 0.25 -8.695312 0.25 -9.0625 C 0.257812 -9.507812 0.59375 -9.835938 1.25 -10.046875 L 1.828125 -10.046875 L 1.828125 -11.546875 C 2.648438 -11.722656 3.210938 -11.816406 3.515625 -11.828125 C 3.992188 -11.828125 4.425781 -11.613281 4.8125 -11.1875 L 4.8125 -10.046875 L 6.078125 -10.046875 C 6.359375 -9.367188 6.5 -8.90625 6.5 -8.65625 C 6.5 -8.207031 6.234375 -7.816406 5.703125 -7.484375 L 4.8125 -7.484375 L 4.8125 -3.0625 C 4.8125 -2.863281 5.222656 -2.722656 6.046875 -2.640625 L 6.296875 -2.265625 C 6.472656 -1.804688 6.5625 -1.398438 6.5625 -1.046875 C 6.539062 -0.648438 6.253906 -0.320312 5.703125 -0.0625 L 4.828125 -0.0625 C 3.648438 -0.0625 2.851562 -0.410156 2.4375 -1.109375 C 2.03125 -1.804688 1.828125 -2.457031 1.828125 -3.0625 Z M 1.828125 -7.484375 "/></g></g></g><g fill="#361d06" fill-opacity="1"><g transform="translate(126.218777, 306.059817)"><g/></g></g><g fill="#361d06" fill-opacity="1"><g transform="translate(131.526754, 306.059817)"><g><path d="M 9.296875 -8.359375 C 9.148438 -7.015625 8.585938 -6.34375 7.609375 -6.34375 C 6.984375 -6.34375 6.601562 -6.445312 6.46875 -6.65625 C 6.28125 -6.851562 6.101562 -7 5.9375 -7.09375 C 5.78125 -7.195312 5.566406 -7.25 5.296875 -7.25 C 5.015625 -7.25 4.71875 -7.09375 4.40625 -6.78125 C 4.101562 -6.46875 3.953125 -5.945312 3.953125 -5.21875 C 3.953125 -4.28125 4.132812 -3.675781 4.5 -3.40625 C 4.875 -3.132812 5.171875 -3 5.390625 -3 C 5.734375 -3 6.097656 -3.113281 6.484375 -3.34375 C 6.765625 -3.726562 7.207031 -3.921875 7.8125 -3.921875 C 8.726562 -3.921875 9.332031 -3.21875 9.625 -1.8125 C 8.125 -0.539062 6.707031 0.09375 5.375 0.09375 C 3.6875 0.0820312 2.445312 -0.5 1.65625 -1.65625 C 0.875 -2.820312 0.484375 -4.007812 0.484375 -5.21875 C 0.484375 -6.675781 0.96875 -7.898438 1.9375 -8.890625 C 2.914062 -9.878906 4.078125 -10.375 5.421875 -10.375 C 6.515625 -10.375 7.320312 -10.195312 7.84375 -9.84375 C 8.375 -9.488281 8.859375 -8.992188 9.296875 -8.359375 Z M 9.296875 -8.359375 "/></g></g></g><g fill="#361d06" fill-opacity="1"><g transform="translate(140.798496, 306.059817)"><g><path d="M 0.46875 -5.140625 C 0.46875 -6.660156 0.925781 -7.878906 1.84375 -8.796875 C 2.769531 -9.722656 3.882812 -10.1875 5.1875 -10.1875 C 6.46875 -10.1875 7.566406 -9.710938 8.484375 -8.765625 C 9.410156 -7.828125 9.875 -6.617188 9.875 -5.140625 C 9.875 -3.691406 9.453125 -2.457031 8.609375 -1.4375 C 7.765625 -0.425781 6.625 0.078125 5.1875 0.078125 C 3.769531 0.078125 2.628906 -0.425781 1.765625 -1.4375 C 0.898438 -2.445312 0.46875 -3.679688 0.46875 -5.140625 Z M 3.921875 -5.140625 C 3.921875 -4.429688 4.046875 -3.894531 4.296875 -3.53125 C 4.554688 -3.175781 4.851562 -3 5.1875 -3 C 5.519531 -3 5.804688 -3.1875 6.046875 -3.5625 C 6.296875 -3.9375 6.421875 -4.460938 6.421875 -5.140625 C 6.421875 -5.859375 6.296875 -6.390625 6.046875 -6.734375 C 5.804688 -7.078125 5.539062 -7.25 5.25 -7.25 C 4.914062 -7.25 4.609375 -7.078125 4.328125 -6.734375 C 4.054688 -6.390625 3.921875 -5.859375 3.921875 -5.140625 Z M 3.921875 -5.140625 "/></g></g></g><g fill="#361d06" fill-opacity="1"><g transform="translate(150.548836, 306.059817)"><g><path d="M 6.234375 -9.53125 C 7.097656 -10.101562 7.800781 -10.390625 8.34375 -10.390625 C 9.195312 -10.390625 9.785156 -9.988281 10.109375 -9.1875 L 10.109375 -0.59375 C 9.484375 -0.144531 8.890625 0.078125 8.328125 0.078125 C 7.929688 0.078125 7.675781 -0.015625 7.5625 -0.203125 L 7.5625 -0.796875 C 6.8125 -0.222656 6.015625 0.0664062 5.171875 0.078125 C 3.992188 0.078125 3.03125 -0.335938 2.28125 -1.171875 C 1.539062 -2.015625 1.128906 -3.023438 1.046875 -4.203125 L 0.75 -9.625 C 1.71875 -10.101562 2.453125 -10.359375 2.953125 -10.390625 C 3.765625 -10.390625 4.3125 -9.988281 4.59375 -9.1875 L 4.84375 -4.15625 C 4.9375 -3.519531 5.023438 -3.15625 5.109375 -3.0625 C 5.203125 -2.96875 5.34375 -2.921875 5.53125 -2.921875 C 5.757812 -2.921875 5.929688 -3.015625 6.046875 -3.203125 C 6.171875 -3.390625 6.234375 -3.703125 6.234375 -4.140625 Z M 6.234375 -9.53125 "/></g></g></g><g fill="#361d06" fill-opacity="1"><g transform="translate(161.010935, 306.059817)"><g><path d="M 4.78125 -0.9375 C 4.769531 -0.207031 4.335938 0.179688 3.484375 0.234375 C 3.003906 0.210938 2.25 -0.03125 1.21875 -0.5 L 1.21875 -9.640625 C 2.007812 -10.085938 2.660156 -10.3125 3.171875 -10.3125 C 3.671875 -10.3125 4.257812 -9.90625 4.9375 -9.09375 L 4.9375 -9.921875 C 5.1875 -10.179688 5.535156 -10.3125 5.984375 -10.3125 C 6.898438 -10.3125 7.71875 -10.15625 8.4375 -9.84375 C 9.164062 -9.53125 9.632812 -8.632812 9.84375 -7.15625 L 10.171875 -0.921875 C 9.941406 -0.171875 9.363281 0.203125 8.4375 0.203125 C 7.832031 0.191406 7.222656 -0.132812 6.609375 -0.78125 L 6.265625 -6.890625 C 6.148438 -7.015625 6.050781 -7.113281 5.96875 -7.1875 C 5.882812 -7.269531 5.628906 -7.3125 5.203125 -7.3125 C 5.046875 -7.3125 4.9375 -7.203125 4.875 -6.984375 C 4.8125 -6.773438 4.78125 -6.453125 4.78125 -6.015625 Z M 4.78125 -0.9375 "/></g></g></g><g fill="#361d06" fill-opacity="1"><g transform="translate(171.534393, 306.059817)"><g><path d="M 1.828125 -7.484375 L 0.875 -7.484375 C 0.457031 -8.171875 0.25 -8.695312 0.25 -9.0625 C 0.257812 -9.507812 0.59375 -9.835938 1.25 -10.046875 L 1.828125 -10.046875 L 1.828125 -11.546875 C 2.648438 -11.722656 3.210938 -11.816406 3.515625 -11.828125 C 3.992188 -11.828125 4.425781 -11.613281 4.8125 -11.1875 L 4.8125 -10.046875 L 6.078125 -10.046875 C 6.359375 -9.367188 6.5 -8.90625 6.5 -8.65625 C 6.5 -8.207031 6.234375 -7.816406 5.703125 -7.484375 L 4.8125 -7.484375 L 4.8125 -3.0625 C 4.8125 -2.863281 5.222656 -2.722656 6.046875 -2.640625 L 6.296875 -2.265625 C 6.472656 -1.804688 6.5625 -1.398438 6.5625 -1.046875 C 6.539062 -0.648438 6.253906 -0.320312 5.703125 -0.0625 L 4.828125 -0.0625 C 3.648438 -0.0625 2.851562 -0.410156 2.4375 -1.109375 C 2.03125 -1.804688 1.828125 -2.457031 1.828125 -3.0625 Z M 1.828125 -7.484375 "/></g></g></g><g fill="#361d06" fill-opacity="1"><g transform="translate(177.725933, 306.059817)"><g><path d="M 4.421875 -4.03125 C 3.023438 -4.425781 2.082031 -4.859375 1.59375 -5.328125 C 1.101562 -5.804688 0.859375 -6.445312 0.859375 -7.25 C 0.859375 -8.375 1.316406 -9.1875 2.234375 -9.6875 C 3.160156 -10.1875 4.171875 -10.441406 5.265625 -10.453125 C 6.929688 -10.453125 8.234375 -9.851562 9.171875 -8.65625 C 8.953125 -7.707031 8.375 -7.234375 7.4375 -7.234375 C 7.113281 -7.234375 6.71875 -7.363281 6.25 -7.625 C 5.800781 -8.0625 5.484375 -8.28125 5.296875 -8.28125 C 5.054688 -8.28125 4.867188 -8.195312 4.734375 -8.03125 C 4.609375 -7.863281 4.546875 -7.65625 4.546875 -7.40625 C 4.546875 -7.1875 4.863281 -6.988281 5.5 -6.8125 C 6.882812 -6.363281 7.863281 -5.882812 8.4375 -5.375 C 9.007812 -4.863281 9.296875 -4.191406 9.296875 -3.359375 C 9.296875 -2.285156 8.757812 -1.40625 7.6875 -0.71875 C 6.882812 -0.195312 5.90625 0.0625 4.75 0.0625 C 2.5625 0.0625 1.21875 -0.640625 0.71875 -2.046875 C 0.832031 -2.992188 1.332031 -3.46875 2.21875 -3.46875 C 2.738281 -3.46875 3.242188 -3.269531 3.734375 -2.875 C 3.890625 -2.632812 4.132812 -2.515625 4.46875 -2.515625 C 4.90625 -2.515625 5.148438 -2.582031 5.203125 -2.71875 C 5.265625 -2.863281 5.296875 -3.035156 5.296875 -3.234375 C 5.296875 -3.441406 5.28125 -3.578125 5.25 -3.640625 C 5.21875 -3.703125 4.941406 -3.832031 4.421875 -4.03125 Z M 4.421875 -4.03125 "/></g></g></g><g fill="#361d06" fill-opacity="1"><g transform="translate(187.390371, 306.059817)"><g><path d="M 6.875 -2.375 L 5.296875 1.15625 C 4.378906 1.875 3.59375 2.234375 2.9375 2.234375 C 1.988281 2.234375 1.421875 1.765625 1.234375 0.828125 L 2.921875 -2.96875 C 3.890625 -3.4375 4.625 -3.675781 5.125 -3.6875 C 6.039062 -3.664062 6.625 -3.226562 6.875 -2.375 Z M 6.875 -2.375 "/></g></g></g><g fill="#361d06" fill-opacity="1"><g transform="translate(194.686366, 306.059817)"><g/></g></g><g fill="#361d06" fill-opacity="1"><g transform="translate(199.994342, 306.059817)"><g><path d="M 1.4375 1.5625 C 1.4375 1.207031 1.75 0.941406 2.375 0.765625 L 5.984375 0.375 C 6.410156 0.289062 6.703125 0.207031 6.859375 0.125 C 7.015625 0.0507812 7.160156 -0.273438 7.296875 -0.859375 L 7.25 -2.25 C 6.445312 -1.257812 5.660156 -0.765625 4.890625 -0.765625 C 3.878906 -0.765625 3.003906 -1.050781 2.265625 -1.625 C 1.535156 -2.207031 1.132812 -3.109375 1.0625 -4.328125 L 0.765625 -9.65625 C 1.765625 -10.070312 2.472656 -10.28125 2.890625 -10.28125 C 3.460938 -10.28125 3.957031 -9.929688 4.375 -9.234375 L 4.703125 -4.28125 C 4.753906 -3.851562 4.828125 -3.539062 4.921875 -3.34375 C 5.015625 -3.144531 5.207031 -3.003906 5.5 -2.921875 C 5.78125 -3.003906 6.046875 -3.160156 6.296875 -3.390625 C 6.546875 -3.617188 6.671875 -3.957031 6.671875 -4.40625 L 6.671875 -9.640625 C 7.441406 -10.066406 7.910156 -10.28125 8.078125 -10.28125 C 8.890625 -10.28125 9.507812 -9.9375 9.9375 -9.25 L 9.9375 -0.859375 C 9.914062 -0.046875 9.753906 0.710938 9.453125 1.421875 C 9.148438 2.128906 8.332031 2.578125 7 2.765625 L 2.09375 3.4375 C 1.65625 2.46875 1.4375 1.84375 1.4375 1.5625 Z M 1.4375 1.5625 "/></g></g></g><g fill="#361d06" fill-opacity="1"><g transform="translate(210.959582, 306.059817)"><g><path d="M 0.46875 -5.140625 C 0.46875 -6.660156 0.925781 -7.878906 1.84375 -8.796875 C 2.769531 -9.722656 3.882812 -10.1875 5.1875 -10.1875 C 6.46875 -10.1875 7.566406 -9.710938 8.484375 -8.765625 C 9.410156 -7.828125 9.875 -6.617188 9.875 -5.140625 C 9.875 -3.691406 9.453125 -2.457031 8.609375 -1.4375 C 7.765625 -0.425781 6.625 0.078125 5.1875 0.078125 C 3.769531 0.078125 2.628906 -0.425781 1.765625 -1.4375 C 0.898438 -2.445312 0.46875 -3.679688 0.46875 -5.140625 Z M 3.921875 -5.140625 C 3.921875 -4.429688 4.046875 -3.894531 4.296875 -3.53125 C 4.554688 -3.175781 4.851562 -3 5.1875 -3 C 5.519531 -3 5.804688 -3.1875 6.046875 -3.5625 C 6.296875 -3.9375 6.421875 -4.460938 6.421875 -5.140625 C 6.421875 -5.859375 6.296875 -6.390625 6.046875 -6.734375 C 5.804688 -7.078125 5.539062 -7.25 5.25 -7.25 C 4.914062 -7.25 4.609375 -7.078125 4.328125 -6.734375 C 4.054688 -6.390625 3.921875 -5.859375 3.921875 -5.140625 Z M 3.921875 -5.140625 "/></g></g></g><g fill="#361d06" fill-opacity="1"><g transform="translate(220.709922, 306.059817)"><g><path d="M 6.234375 -9.53125 C 7.097656 -10.101562 7.800781 -10.390625 8.34375 -10.390625 C 9.195312 -10.390625 9.785156 -9.988281 10.109375 -9.1875 L 10.109375 -0.59375 C 9.484375 -0.144531 8.890625 0.078125 8.328125 0.078125 C 7.929688 0.078125 7.675781 -0.015625 7.5625 -0.203125 L 7.5625 -0.796875 C 6.8125 -0.222656 6.015625 0.0664062 5.171875 0.078125 C 3.992188 0.078125 3.03125 -0.335938 2.28125 -1.171875 C 1.539062 -2.015625 1.128906 -3.023438 1.046875 -4.203125 L 0.75 -9.625 C 1.71875 -10.101562 2.453125 -10.359375 2.953125 -10.390625 C 3.765625 -10.390625 4.3125 -9.988281 4.59375 -9.1875 L 4.84375 -4.15625 C 4.9375 -3.519531 5.023438 -3.15625 5.109375 -3.0625 C 5.203125 -2.96875 5.34375 -2.921875 5.53125 -2.921875 C 5.757812 -2.921875 5.929688 -3.015625 6.046875 -3.203125 C 6.171875 -3.390625 6.234375 -3.703125 6.234375 -4.140625 Z M 6.234375 -9.53125 "/></g></g></g><g fill="#361d06" fill-opacity="1"><g transform="translate(231.172021, 306.059817)"><g/></g></g><g fill="#361d06" fill-opacity="1"><g transform="translate(236.479998, 306.059817)"><g><path d="M 5.515625 -7.359375 L 5.515625 -0.65625 C 4.566406 -0.164062 3.859375 0.078125 3.390625 0.078125 C 2.523438 0.078125 1.953125 -0.265625 1.671875 -0.953125 L 1.671875 -7.359375 L 0.796875 -7.359375 C 0.546875 -8.203125 0.414062 -8.75 0.40625 -9 C 0.40625 -9.351562 0.6875 -9.71875 1.25 -10.09375 L 1.671875 -10.09375 L 1.671875 -10.84375 C 1.671875 -11.769531 2.0625 -12.421875 2.84375 -12.796875 C 3.632812 -13.179688 4.457031 -13.375 5.3125 -13.375 C 5.914062 -13.375 6.488281 -13.273438 7.03125 -13.078125 C 7.476562 -12.773438 7.816406 -12.453125 8.046875 -12.109375 C 7.785156 -11.484375 7.367188 -11.171875 6.796875 -11.171875 C 6.410156 -11.203125 6.148438 -11.285156 6.015625 -11.421875 C 5.878906 -11.554688 5.71875 -11.625 5.53125 -11.625 C 5.28125 -11.625 5.109375 -11.460938 5.015625 -11.140625 L 5.015625 -10.09375 L 6.875 -10.09375 C 7.175781 -9.488281 7.328125 -9.0625 7.328125 -8.8125 C 7.328125 -8.394531 7.035156 -7.910156 6.453125 -7.359375 Z M 5.515625 -7.359375 "/></g></g></g><g fill="#361d06" fill-opacity="1"><g transform="translate(244.156416, 306.059817)"><g><path d="M 1.1875 -12.453125 C 1.1875 -12.960938 1.425781 -13.328125 1.90625 -13.546875 C 2.394531 -13.773438 2.835938 -13.890625 3.234375 -13.890625 C 3.742188 -13.890625 4.164062 -13.769531 4.5 -13.53125 C 4.84375 -13.300781 5.015625 -12.941406 5.015625 -12.453125 C 5.015625 -12.148438 4.832031 -11.835938 4.46875 -11.515625 C 4.113281 -11.203125 3.585938 -11.046875 2.890625 -11.046875 C 2.171875 -11.046875 1.707031 -11.207031 1.5 -11.53125 C 1.289062 -11.863281 1.1875 -12.171875 1.1875 -12.453125 Z M 1.21875 -9.34375 C 2.144531 -9.769531 2.890625 -9.984375 3.453125 -9.984375 C 4.160156 -9.953125 4.726562 -9.628906 5.15625 -9.015625 L 5.15625 -0.71875 C 4.363281 -0.0820312 3.660156 0.234375 3.046875 0.234375 C 2.140625 0.234375 1.53125 -0.175781 1.21875 -1 Z M 1.21875 -9.34375 "/></g></g></g><g fill="#361d06" fill-opacity="1"><g transform="translate(249.673012, 306.059817)"><g><path d="M 5.859375 -3 L 8.453125 -3 C 9.304688 -2.582031 9.734375 -2.125 9.734375 -1.625 C 9.734375 -1.25 9.476562 -0.65625 8.96875 0.15625 L 2.1875 0.15625 C 1.414062 0.0625 0.96875 -0.125 0.84375 -0.40625 C 0.726562 -0.6875 0.671875 -1.023438 0.671875 -1.421875 L 4.3125 -7.25 L 1.234375 -7.25 C 0.671875 -8.050781 0.390625 -8.625 0.390625 -8.96875 C 0.390625 -9.5625 0.851562 -10.019531 1.78125 -10.34375 L 7.828125 -10.34375 C 8.546875 -10.332031 9.003906 -10.164062 9.203125 -9.84375 C 9.410156 -9.519531 9.515625 -9.164062 9.515625 -8.78125 Z M 5.859375 -3 "/></g></g></g><g fill="#361d06" fill-opacity="1"><g transform="translate(259.656514, 306.059817)"><g><path d="M 5.859375 -3 L 8.453125 -3 C 9.304688 -2.582031 9.734375 -2.125 9.734375 -1.625 C 9.734375 -1.25 9.476562 -0.65625 8.96875 0.15625 L 2.1875 0.15625 C 1.414062 0.0625 0.96875 -0.125 0.84375 -0.40625 C 0.726562 -0.6875 0.671875 -1.023438 0.671875 -1.421875 L 4.3125 -7.25 L 1.234375 -7.25 C 0.671875 -8.050781 0.390625 -8.625 0.390625 -8.96875 C 0.390625 -9.5625 0.851562 -10.019531 1.78125 -10.34375 L 7.828125 -10.34375 C 8.546875 -10.332031 9.003906 -10.164062 9.203125 -9.84375 C 9.410156 -9.519531 9.515625 -9.164062 9.515625 -8.78125 Z M 5.859375 -3 "/></g></g></g><g fill="#361d06" fill-opacity="1"><g transform="translate(269.640016, 306.059817)"><g><path d="M 4.859375 -10.390625 C 5.453125 -10.390625 6.128906 -10.363281 6.890625 -10.3125 C 7.648438 -10.269531 8.472656 -9.734375 9.359375 -8.703125 C 10.242188 -7.679688 10.6875 -6.523438 10.6875 -5.234375 C 10.6875 -3.773438 10.378906 -2.523438 9.765625 -1.484375 C 9.148438 -0.453125 7.992188 0.0625 6.296875 0.0625 L 6.265625 0.0625 C 5.609375 0.0625 5.097656 -0.175781 4.734375 -0.65625 L 4.375 -0.609375 C 4.226562 -0.148438 3.859375 0.078125 3.265625 0.078125 C 2.503906 0.078125 1.90625 -0.273438 1.46875 -0.984375 L 1.46875 -12.375 C 2.300781 -12.875 3.003906 -13.125 3.578125 -13.125 C 4.335938 -13.125 4.765625 -12.726562 4.859375 -11.9375 Z M 7.234375 -5.234375 C 7.234375 -6.035156 7.003906 -6.578125 6.546875 -6.859375 C 6.097656 -7.140625 5.734375 -7.28125 5.453125 -7.28125 L 4.625 -7.28125 L 4.625 -4.875 C 4.625 -4.164062 4.8125 -3.695312 5.1875 -3.46875 C 5.5625 -3.238281 5.847656 -3.125 6.046875 -3.125 C 6.265625 -3.125 6.515625 -3.191406 6.796875 -3.328125 C 7.085938 -3.472656 7.234375 -4.109375 7.234375 -5.234375 Z M 7.234375 -5.234375 "/></g></g></g><g fill="#361d06" fill-opacity="1"><g transform="translate(280.249376, 306.059817)"><g><path d="M 6.234375 -9.53125 C 7.097656 -10.101562 7.800781 -10.390625 8.34375 -10.390625 C 9.195312 -10.390625 9.785156 -9.988281 10.109375 -9.1875 L 10.109375 -0.59375 C 9.484375 -0.144531 8.890625 0.078125 8.328125 0.078125 C 7.929688 0.078125 7.675781 -0.015625 7.5625 -0.203125 L 7.5625 -0.796875 C 6.8125 -0.222656 6.015625 0.0664062 5.171875 0.078125 C 3.992188 0.078125 3.03125 -0.335938 2.28125 -1.171875 C 1.539062 -2.015625 1.128906 -3.023438 1.046875 -4.203125 L 0.75 -9.625 C 1.71875 -10.101562 2.453125 -10.359375 2.953125 -10.390625 C 3.765625 -10.390625 4.3125 -9.988281 4.59375 -9.1875 L 4.84375 -4.15625 C 4.9375 -3.519531 5.023438 -3.15625 5.109375 -3.0625 C 5.203125 -2.96875 5.34375 -2.921875 5.53125 -2.921875 C 5.757812 -2.921875 5.929688 -3.015625 6.046875 -3.203125 C 6.171875 -3.390625 6.234375 -3.703125 6.234375 -4.140625 Z M 6.234375 -9.53125 "/></g></g></g><g fill="#361d06" fill-opacity="1"><g transform="translate(290.711488, 306.059817)"><g><path d="M 5.859375 -3 L 8.453125 -3 C 9.304688 -2.582031 9.734375 -2.125 9.734375 -1.625 C 9.734375 -1.25 9.476562 -0.65625 8.96875 0.15625 L 2.1875 0.15625 C 1.414062 0.0625 0.96875 -0.125 0.84375 -0.40625 C 0.726562 -0.6875 0.671875 -1.023438 0.671875 -1.421875 L 4.3125 -7.25 L 1.234375 -7.25 C 0.671875 -8.050781 0.390625 -8.625 0.390625 -8.96875 C 0.390625 -9.5625 0.851562 -10.019531 1.78125 -10.34375 L 7.828125 -10.34375 C 8.546875 -10.332031 9.003906 -10.164062 9.203125 -9.84375 C 9.410156 -9.519531 9.515625 -9.164062 9.515625 -8.78125 Z M 5.859375 -3 "/></g></g></g><g fill="#361d06" fill-opacity="1"><g transform="translate(300.694991, 306.059817)"><g><path d="M 5.859375 -3 L 8.453125 -3 C 9.304688 -2.582031 9.734375 -2.125 9.734375 -1.625 C 9.734375 -1.25 9.476562 -0.65625 8.96875 0.15625 L 2.1875 0.15625 C 1.414062 0.0625 0.96875 -0.125 0.84375 -0.40625 C 0.726562 -0.6875 0.671875 -1.023438 0.671875 -1.421875 L 4.3125 -7.25 L 1.234375 -7.25 C 0.671875 -8.050781 0.390625 -8.625 0.390625 -8.96875 C 0.390625 -9.5625 0.851562 -10.019531 1.78125 -10.34375 L 7.828125 -10.34375 C 8.546875 -10.332031 9.003906 -10.164062 9.203125 -9.84375 C 9.410156 -9.519531 9.515625 -9.164062 9.515625 -8.78125 Z M 5.859375 -3 "/></g></g></g><g fill="#000000" fill-opacity="0.4"><g transform="translate(61.05894, 271.650143)"><g><path d="M 4.515625 -39.140625 L 32.828125 -39.140625 C 34.921875 -37.671875 35.96875 -36.335938 35.96875 -35.140625 C 35.96875 -34.148438 35.53125 -32.375 34.65625 -29.8125 L 17.015625 -29.8125 L 17.015625 -23.421875 L 30.734375 -24.40625 C 33.273438 -23.101562 34.546875 -21.695312 34.546875 -20.1875 C 34.546875 -18.96875 33.703125 -17.6875 32.015625 -16.34375 L 17.015625 -15.296875 L 17.015625 -1.15625 C 13.203125 -0.0625 10.703125 0.484375 9.515625 0.484375 C 6.273438 0.484375 4.609375 -0.695312 4.515625 -3.0625 Z M 4.515625 -39.140625 "/></g></g></g><g fill="#000000" fill-opacity="0.4"><g transform="translate(96.521981, 271.650143)"><g><path d="M 3.625 -37.828125 C 3.625 -39.398438 4.351562 -40.519531 5.8125 -41.1875 C 7.28125 -41.851562 8.613281 -42.1875 9.8125 -42.1875 C 11.375 -42.1875 12.671875 -41.832031 13.703125 -41.125 C 14.742188 -40.414062 15.265625 -39.316406 15.265625 -37.828125 C 15.265625 -36.910156 14.710938 -35.972656 13.609375 -35.015625 C 12.515625 -34.054688 10.910156 -33.578125 8.796875 -33.578125 C 6.609375 -33.578125 5.195312 -34.070312 4.5625 -35.0625 C 3.9375 -36.0625 3.625 -36.984375 3.625 -37.828125 Z M 3.6875 -28.390625 C 6.5 -29.679688 8.765625 -30.328125 10.484375 -30.328125 C 12.648438 -30.253906 14.378906 -29.273438 15.671875 -27.390625 L 15.671875 -2.15625 C 13.253906 -0.25 11.113281 0.703125 9.25 0.703125 C 6.488281 0.703125 4.632812 -0.550781 3.6875 -3.0625 Z M 3.6875 -28.390625 "/></g></g></g><g fill="#000000" fill-opacity="0.4"><g transform="translate(113.293846, 271.650143)"><g><path d="M 17.796875 -9.109375 L 25.703125 -9.109375 C 28.285156 -7.859375 29.578125 -6.460938 29.578125 -4.921875 C 29.578125 -3.804688 28.796875 -2.003906 27.234375 0.484375 L 6.640625 0.484375 C 4.304688 0.179688 2.957031 -0.394531 2.59375 -1.25 C 2.226562 -2.101562 2.046875 -3.128906 2.046875 -4.328125 L 13.09375 -22.046875 L 3.765625 -22.046875 C 2.046875 -24.460938 1.1875 -26.191406 1.1875 -27.234375 C 1.1875 -29.046875 2.59375 -30.4375 5.40625 -31.40625 L 23.796875 -31.40625 C 25.984375 -31.382812 27.378906 -30.890625 27.984375 -29.921875 C 28.597656 -28.953125 28.90625 -27.867188 28.90625 -26.671875 Z M 17.796875 -9.109375 "/></g></g></g><g fill="#000000" fill-opacity="0.4"><g transform="translate(143.645727, 271.650143)"><g><path d="M 17.796875 -9.109375 L 25.703125 -9.109375 C 28.285156 -7.859375 29.578125 -6.460938 29.578125 -4.921875 C 29.578125 -3.804688 28.796875 -2.003906 27.234375 0.484375 L 6.640625 0.484375 C 4.304688 0.179688 2.957031 -0.394531 2.59375 -1.25 C 2.226562 -2.101562 2.046875 -3.128906 2.046875 -4.328125 L 13.09375 -22.046875 L 3.765625 -22.046875 C 2.046875 -24.460938 1.1875 -26.191406 1.1875 -27.234375 C 1.1875 -29.046875 2.59375 -30.4375 5.40625 -31.40625 L 23.796875 -31.40625 C 25.984375 -31.382812 27.378906 -30.890625 27.984375 -29.921875 C 28.597656 -28.953125 28.90625 -27.867188 28.90625 -26.671875 Z M 17.796875 -9.109375 "/></g></g></g><g fill="#000000" fill-opacity="0.4"><g transform="translate(173.997608, 271.650143)"><g/></g></g><g fill="#000000" fill-opacity="1"><g transform="translate(57.681929, 268.273137)"><g><path d="M 4.515625 -39.140625 L 32.828125 -39.140625 C 34.921875 -37.671875 35.96875 -36.335938 35.96875 -35.140625 C 35.96875 -34.148438 35.53125 -32.375 34.65625 -29.8125 L 17.015625 -29.8125 L 17.015625 -23.421875 L 30.734375 -24.40625 C 33.273438 -23.101562 34.546875 -21.695312 34.546875 -20.1875 C 34.546875 -18.96875 33.703125 -17.6875 32.015625 -16.34375 L 17.015625 -15.296875 L 17.015625 -1.15625 C 13.203125 -0.0625 10.703125 0.484375 9.515625 0.484375 C 6.273438 0.484375 4.609375 -0.695312 4.515625 -3.0625 Z M 4.515625 -39.140625 "/></g></g></g><g fill="#000000" fill-opacity="1"><g transform="translate(93.14497, 268.273137)"><g><path d="M 3.625 -37.828125 C 3.625 -39.398438 4.351562 -40.519531 5.8125 -41.1875 C 7.28125 -41.851562 8.613281 -42.1875 9.8125 -42.1875 C 11.375 -42.1875 12.671875 -41.832031 13.703125 -41.125 C 14.742188 -40.414062 15.265625 -39.316406 15.265625 -37.828125 C 15.265625 -36.910156 14.710938 -35.972656 13.609375 -35.015625 C 12.515625 -34.054688 10.910156 -33.578125 8.796875 -33.578125 C 6.609375 -33.578125 5.195312 -34.070312 4.5625 -35.0625 C 3.9375 -36.0625 3.625 -36.984375 3.625 -37.828125 Z M 3.6875 -28.390625 C 6.5 -29.679688 8.765625 -30.328125 10.484375 -30.328125 C 12.648438 -30.253906 14.378906 -29.273438 15.671875 -27.390625 L 15.671875 -2.15625 C 13.253906 -0.25 11.113281 0.703125 9.25 0.703125 C 6.488281 0.703125 4.632812 -0.550781 3.6875 -3.0625 Z M 3.6875 -28.390625 "/></g></g></g><g fill="#000000" fill-opacity="1"><g transform="translate(109.916835, 268.273137)"><g><path d="M 17.796875 -9.109375 L 25.703125 -9.109375 C 28.285156 -7.859375 29.578125 -6.460938 29.578125 -4.921875 C 29.578125 -3.804688 28.796875 -2.003906 27.234375 0.484375 L 6.640625 0.484375 C 4.304688 0.179688 2.957031 -0.394531 2.59375 -1.25 C 2.226562 -2.101562 2.046875 -3.128906 2.046875 -4.328125 L 13.09375 -22.046875 L 3.765625 -22.046875 C 2.046875 -24.460938 1.1875 -26.191406 1.1875 -27.234375 C 1.1875 -29.046875 2.59375 -30.4375 5.40625 -31.40625 L 23.796875 -31.40625 C 25.984375 -31.382812 27.378906 -30.890625 27.984375 -29.921875 C 28.597656 -28.953125 28.90625 -27.867188 28.90625 -26.671875 Z M 17.796875 -9.109375 "/></g></g></g><g fill="#000000" fill-opacity="1"><g transform="translate(140.268716, 268.273137)"><g><path d="M 17.796875 -9.109375 L 25.703125 -9.109375 C 28.285156 -7.859375 29.578125 -6.460938 29.578125 -4.921875 C 29.578125 -3.804688 28.796875 -2.003906 27.234375 0.484375 L 6.640625 0.484375 C 4.304688 0.179688 2.957031 -0.394531 2.59375 -1.25 C 2.226562 -2.101562 2.046875 -3.128906 2.046875 -4.328125 L 13.09375 -22.046875 L 3.765625 -22.046875 C 2.046875 -24.460938 1.1875 -26.191406 1.1875 -27.234375 C 1.1875 -29.046875 2.59375 -30.4375 5.40625 -31.40625 L 23.796875 -31.40625 C 25.984375 -31.382812 27.378906 -30.890625 27.984375 -29.921875 C 28.597656 -28.953125 28.90625 -27.867188 28.90625 -26.671875 Z M 17.796875 -9.109375 "/></g></g></g><g fill="#000000" fill-opacity="1"><g transform="translate(170.620597, 268.273137)"><g/></g></g><g fill="#000000" fill-opacity="0.4"><g transform="translate(190.129248, 271.650143)"><g><path d="M 15.1875 -16.53125 L 15.1875 -8.171875 L 20.140625 -8.171875 C 21.804688 -8.222656 22.910156 -8.753906 23.453125 -9.765625 C 24.003906 -10.785156 24.296875 -12.007812 24.328125 -13.4375 C 24.296875 -14.207031 23.9375 -14.925781 23.25 -15.59375 C 22.570312 -16.269531 21.710938 -16.65625 20.671875 -16.75 Z M 15.1875 -23.609375 L 19.890625 -23.875 C 20.878906 -23.925781 21.613281 -24.335938 22.09375 -25.109375 C 22.582031 -25.878906 22.828125 -26.75 22.828125 -27.71875 C 22.828125 -28.664062 22.53125 -29.34375 21.9375 -29.75 C 21.34375 -30.164062 20.097656 -30.382812 18.203125 -30.40625 L 15.1875 -30.40625 Z M 4.484375 -38.953125 L 18.25 -38.953125 C 24.664062 -38.898438 28.945312 -37.71875 31.09375 -35.40625 C 33.25 -33.09375 34.328125 -30.742188 34.328125 -28.359375 C 34.328125 -26.210938 33.941406 -24.398438 33.171875 -22.921875 C 32.398438 -21.441406 31.851562 -20.613281 31.53125 -20.4375 C 32.070312 -20.4375 32.988281 -19.753906 34.28125 -18.390625 C 35.570312 -17.023438 36.21875 -15.109375 36.21875 -12.640625 C 36.21875 -10.203125 35.125 -7.457031 32.9375 -4.40625 C 30.75 -1.363281 26.535156 0.203125 20.296875 0.296875 L 4.484375 0.296875 Z M 4.484375 -38.953125 "/></g></g></g><g fill="#000000" fill-opacity="0.4"><g transform="translate(225.890751, 271.650143)"><g><path d="M 18.953125 -28.984375 C 21.566406 -30.703125 23.707031 -31.5625 25.375 -31.5625 C 27.957031 -31.5625 29.734375 -30.351562 30.703125 -27.9375 L 30.703125 -1.796875 C 28.816406 -0.453125 27.015625 0.21875 25.296875 0.21875 C 24.097656 0.21875 23.328125 -0.0507812 22.984375 -0.59375 L 22.984375 -2.421875 C 20.722656 -0.679688 18.296875 0.210938 15.703125 0.265625 C 12.117188 0.265625 9.195312 -1.015625 6.9375 -3.578125 C 4.675781 -6.140625 3.421875 -9.203125 3.171875 -12.765625 L 2.28125 -29.25 C 5.238281 -30.71875 7.472656 -31.488281 8.984375 -31.5625 C 11.453125 -31.5625 13.109375 -30.34375 13.953125 -27.90625 L 14.734375 -12.640625 C 15.003906 -10.703125 15.273438 -9.585938 15.546875 -9.296875 C 15.828125 -9.015625 16.253906 -8.875 16.828125 -8.875 C 17.492188 -8.875 18.015625 -9.160156 18.390625 -9.734375 C 18.765625 -10.304688 18.953125 -11.253906 18.953125 -12.578125 Z M 18.953125 -28.984375 "/></g></g></g><g fill="#000000" fill-opacity="0.4"><g transform="translate(257.697634, 271.650143)"><g><path d="M 17.796875 -9.109375 L 25.703125 -9.109375 C 28.285156 -7.859375 29.578125 -6.460938 29.578125 -4.921875 C 29.578125 -3.804688 28.796875 -2.003906 27.234375 0.484375 L 6.640625 0.484375 C 4.304688 0.179688 2.957031 -0.394531 2.59375 -1.25 C 2.226562 -2.101562 2.046875 -3.128906 2.046875 -4.328125 L 13.09375 -22.046875 L 3.765625 -22.046875 C 2.046875 -24.460938 1.1875 -26.191406 1.1875 -27.234375 C 1.1875 -29.046875 2.59375 -30.4375 5.40625 -31.40625 L 23.796875 -31.40625 C 25.984375 -31.382812 27.378906 -30.890625 27.984375 -29.921875 C 28.597656 -28.953125 28.90625 -27.867188 28.90625 -26.671875 Z M 17.796875 -9.109375 "/></g></g></g><g fill="#000000" fill-opacity="0.4"><g transform="translate(288.049514, 271.650143)"><g><path d="M 17.796875 -9.109375 L 25.703125 -9.109375 C 28.285156 -7.859375 29.578125 -6.460938 29.578125 -4.921875 C 29.578125 -3.804688 28.796875 -2.003906 27.234375 0.484375 L 6.640625 0.484375 C 4.304688 0.179688 2.957031 -0.394531 2.59375 -1.25 C 2.226562 -2.101562 2.046875 -3.128906 2.046875 -4.328125 L 13.09375 -22.046875 L 3.765625 -22.046875 C 2.046875 -24.460938 1.1875 -26.191406 1.1875 -27.234375 C 1.1875 -29.046875 2.59375 -30.4375 5.40625 -31.40625 L 23.796875 -31.40625 C 25.984375 -31.382812 27.378906 -30.890625 27.984375 -29.921875 C 28.597656 -28.953125 28.90625 -27.867188 28.90625 -26.671875 Z M 17.796875 -9.109375 "/></g></g></g><g fill="#ffbd59" fill-opacity="1"><g transform="translate(186.752237, 268.273137)"><g><path d="M 15.1875 -16.53125 L 15.1875 -8.171875 L 20.140625 -8.171875 C 21.804688 -8.222656 22.910156 -8.753906 23.453125 -9.765625 C 24.003906 -10.785156 24.296875 -12.007812 24.328125 -13.4375 C 24.296875 -14.207031 23.9375 -14.925781 23.25 -15.59375 C 22.570312 -16.269531 21.710938 -16.65625 20.671875 -16.75 Z M 15.1875 -23.609375 L 19.890625 -23.875 C 20.878906 -23.925781 21.613281 -24.335938 22.09375 -25.109375 C 22.582031 -25.878906 22.828125 -26.75 22.828125 -27.71875 C 22.828125 -28.664062 22.53125 -29.34375 21.9375 -29.75 C 21.34375 -30.164062 20.097656 -30.382812 18.203125 -30.40625 L 15.1875 -30.40625 Z M 4.484375 -38.953125 L 18.25 -38.953125 C 24.664062 -38.898438 28.945312 -37.71875 31.09375 -35.40625 C 33.25 -33.09375 34.328125 -30.742188 34.328125 -28.359375 C 34.328125 -26.210938 33.941406 -24.398438 33.171875 -22.921875 C 32.398438 -21.441406 31.851562 -20.613281 31.53125 -20.4375 C 32.070312 -20.4375 32.988281 -19.753906 34.28125 -18.390625 C 35.570312 -17.023438 36.21875 -15.109375 36.21875 -12.640625 C 36.21875 -10.203125 35.125 -7.457031 32.9375 -4.40625 C 30.75 -1.363281 26.535156 0.203125 20.296875 0.296875 L 4.484375 0.296875 Z M 4.484375 -38.953125 "/></g></g></g><g fill="#ffbd59" fill-opacity="1"><g transform="translate(222.51374, 268.273137)"><g><path d="M 18.953125 -28.984375 C 21.566406 -30.703125 23.707031 -31.5625 25.375 -31.5625 C 27.957031 -31.5625 29.734375 -30.351562 30.703125 -27.9375 L 30.703125 -1.796875 C 28.816406 -0.453125 27.015625 0.21875 25.296875 0.21875 C 24.097656 0.21875 23.328125 -0.0507812 22.984375 -0.59375 L 22.984375 -2.421875 C 20.722656 -0.679688 18.296875 0.210938 15.703125 0.265625 C 12.117188 0.265625 9.195312 -1.015625 6.9375 -3.578125 C 4.675781 -6.140625 3.421875 -9.203125 3.171875 -12.765625 L 2.28125 -29.25 C 5.238281 -30.71875 7.472656 -31.488281 8.984375 -31.5625 C 11.453125 -31.5625 13.109375 -30.34375 13.953125 -27.90625 L 14.734375 -12.640625 C 15.003906 -10.703125 15.273438 -9.585938 15.546875 -9.296875 C 15.828125 -9.015625 16.253906 -8.875 16.828125 -8.875 C 17.492188 -8.875 18.015625 -9.160156 18.390625 -9.734375 C 18.765625 -10.304688 18.953125 -11.253906 18.953125 -12.578125 Z M 18.953125 -28.984375 "/></g></g></g><g fill="#ffbd59" fill-opacity="1"><g transform="translate(254.320623, 268.273137)"><g><path d="M 17.796875 -9.109375 L 25.703125 -9.109375 C 28.285156 -7.859375 29.578125 -6.460938 29.578125 -4.921875 C 29.578125 -3.804688 28.796875 -2.003906 27.234375 0.484375 L 6.640625 0.484375 C 4.304688 0.179688 2.957031 -0.394531 2.59375 -1.25 C 2.226562 -2.101562 2.046875 -3.128906 2.046875 -4.328125 L 13.09375 -22.046875 L 3.765625 -22.046875 C 2.046875 -24.460938 1.1875 -26.191406 1.1875 -27.234375 C 1.1875 -29.046875 2.59375 -30.4375 5.40625 -31.40625 L 23.796875 -31.40625 C 25.984375 -31.382812 27.378906 -30.890625 27.984375 -29.921875 C 28.597656 -28.953125 28.90625 -27.867188 28.90625 -26.671875 Z M 17.796875 -9.109375 "/></g></g></g><g fill="#ffbd59" fill-opacity="1"><g transform="translate(284.672503, 268.273137)"><g><path d="M 17.796875 -9.109375 L 25.703125 -9.109375 C 28.285156 -7.859375 29.578125 -6.460938 29.578125 -4.921875 C 29.578125 -3.804688 28.796875 -2.003906 27.234375 0.484375 L 6.640625 0.484375 C 4.304688 0.179688 2.957031 -0.394531 2.59375 -1.25 C 2.226562 -2.101562 2.046875 -3.128906 2.046875 -4.328125 L 13.09375 -22.046875 L 3.765625 -22.046875 C 2.046875 -24.460938 1.1875 -26.191406 1.1875 -27.234375 C 1.1875 -29.046875 2.59375 -30.4375 5.40625 -31.40625 L 23.796875 -31.40625 C 25.984375 -31.382812 27.378906 -30.890625 27.984375 -29.921875 C 28.597656 -28.953125 28.90625 -27.867188 28.90625 -26.671875 Z M 17.796875 -9.109375 "/></g></g></g></svg>